<?xml version="1.0" encoding="iso-8859-1"?>
<!-- Generator: Adobe Illustrator 19.0.0, SVG Export Plug-In . SVG Version: 6.00 Build 0)  -->
<svg version="1.1" id="Capa_1" xmlns="http://www.w3.org/2000/svg" xmlns:xlink="http://www.w3.org/1999/xlink" x="0px" y="0px"
	 viewBox="0 0 456 456" style="enable-background:new 0 0 456 456;" xml:space="preserve">
<g>
	<g>
		<path d="M388.095,184h-8c-4.748,0.025-9.429,1.119-13.696,3.2l18.976-98.712l10.568-54.976c0.835-4.339-2.005-8.533-6.344-9.368
			C389.104,24.049,388.6,24,388.095,24h-192c-4.418,0-8,3.582-8,8c0,0.508,0.048,1.014,0.144,1.512l10.568,54.976l18.992,98.712
			c-4.27-2.082-8.954-3.176-13.704-3.2h-42.904c-4.479-0.007-8.91,0.933-13,2.76l-56.096,24.928V208c0-4.418-3.582-8-8-8h-48
			c-4.418,0-8,3.582-8,8v240c0,4.418,3.582,8,8,8h48c4.418,0,8-3.582,8-8v-8h194.744c46.489,0.128,91.097-18.349,123.88-51.312
			c6.024-5.988,9.4-14.138,9.376-22.632V216C420.095,198.327,405.769,184,388.095,184z M76.095,440h-32V216h32V440z M378.415,40
			l-7.12,36.96c-16.03-6.007-27.657-20.084-30.528-36.96H378.415z M205.775,40h37.648c-2.871,16.876-14.498,30.953-30.528,36.96
			L205.775,40z M215.927,92.8c23.521-7.689,40.502-28.249,43.608-52.8h65.12c3.106,24.551,20.087,45.111,43.608,52.8
			l-26.064,135.504c-2.834,2.372-6.408,3.68-10.104,3.696h-80c-3.696-0.015-7.27-1.323-10.104-3.696L215.927,92.8z M404.095,244.504
			c-19.245,18.274-43.675,30.142-69.936,33.976l-67.2,9.6l2.264,15.832l67.2-9.6c24.661-3.606,47.972-13.524,67.672-28.792v18.984
			c-19.245,18.274-43.675,30.142-69.936,33.976l-67.2,9.6l2.264,15.832l67.2-9.6c24.661-3.606,47.972-13.524,67.672-28.792v18.984
			c-19.245,18.274-43.675,30.142-69.936,33.976l-67.2,9.6l2.264,15.832l67.2-9.6c24.661-3.606,47.972-13.524,67.672-28.792v20.544
			c0.011,4.245-1.677,8.319-4.688,11.312c-29.79,29.952-70.324,46.74-112.568,46.624H92.095V229.2l62.608-27.824
			c2.041-0.912,4.252-1.381,6.488-1.376h42.904c8.837,0,16,7.163,16,16c0,17.673,14.327,32,32,32h80c17.673,0,32-14.327,32-32
			c0-8.837,7.163-16,16-16h8c8.837,0,16,7.163,16,16V244.504z"/>
	</g>
</g>
<g>
	<g>
		<path d="M292.095,144c-22.091,0-40,17.909-40,40c0.026,22.08,17.92,39.974,40,40c22.091,0,40-17.909,40-40
			S314.187,144,292.095,144z M292.095,208c-13.255,0-24-10.745-24-24s10.745-24,24-24s24,10.745,24,24S305.35,208,292.095,208z"/>
	</g>
</g>
<g>
	<g>
		<rect x="330.339" y="96.001" transform="matrix(0.2169 -0.9762 0.9762 0.2169 214.9101 475.913)" width="147.512" height="16"/>
	</g>
</g>
<g>
	<g>
		<path d="M228.095,0h-72c-4.418,0-8,3.581-8,8c0,0.622,0.073,1.243,0.216,1.848l40,168l15.56-3.704L166.223,16h61.872V0z"/>
	</g>
</g>
<g>
</g>
<g>
</g>
<g>
</g>
<g>
</g>
<g>
</g>
<g>
</g>
<g>
</g>
<g>
</g>
<g>
</g>
<g>
</g>
<g>
</g>
<g>
</g>
<g>
</g>
<g>
</g>
<g>
</g>
</svg>
