<?xml version="1.0" encoding="iso-8859-1"?>
<!-- Generator: Adobe Illustrator 19.0.0, SVG Export Plug-In . SVG Version: 6.00 Build 0)  -->
<svg version="1.1" id="Capa_1" xmlns="http://www.w3.org/2000/svg" xmlns:xlink="http://www.w3.org/1999/xlink" x="0px" y="0px"
	 viewBox="0 0 479.997 479.997" style="enable-background:new 0 0 479.997 479.997;" xml:space="preserve">
<g>
	<g>
		<path d="M477.656,2.341c-1.839-1.837-4.455-2.666-7.016-2.224l-103.496,17.84c-37.404,6.534-73.023,20.836-104.56,41.984
			l-58.904-3.944c-2.295-0.118-4.536,0.726-6.184,2.328L95.664,160.165c-3.125,3.124-3.125,8.189-0.001,11.314
			c1.371,1.372,3.194,2.198,5.129,2.326l61.96,4.136l-24.408,24.408c-2.392,2.416-2.975,6.09-1.448,9.128
			C102.13,229.26,80.184,264.947,80,303.997v88c0,4.418,3.582,8,8,8h88c39.05-0.181,74.74-22.124,92.528-56.888
			c3.028,1.599,6.748,1.006,9.128-1.456l19.672-19.672l4.344,65.224c0.312,4.407,4.138,7.727,8.545,7.414
			c1.904-0.135,3.696-0.946,5.055-2.286l101.864-101.832c1.631-1.63,2.479-3.883,2.328-6.184l-4-60.184
			c23.664-33.136,39.586-71.161,46.592-111.272L479.88,9.357C480.323,6.796,479.493,4.179,477.656,2.341z M119.44,158.989
			l86.8-86.768l36.272,2.4c-28.946,23.29-52.806,52.272-70.104,85.152l-1.392,2.656L119.44,158.989z M176,383.997H96v-80
			c0.147-34.739,20.621-66.174,52.336-80.352l13.84,13.84c-16.022,8.125-26.134,24.548-26.176,42.512v56c0,4.418,3.582,8,8,8h56
			c17.964-0.042,34.387-10.154,42.512-26.176l13.84,13.84C242.175,363.376,210.74,383.85,176,383.997z M174.264,249.597
			l56.136,56.136c-4.211,13.244-16.503,22.246-30.4,22.264h-48v-48C152.014,266.098,161.017,253.804,174.264,249.597z M272,324.685
			l-0.568-0.568l-26.512-26.52l-62.52-62.52l-26.504-26.504l-0.584-0.576L176,187.309l116.688,116.688L272,324.685z
			 M316.464,368.549l-3.8-57.016l7.536-3.944c30.707-16.171,58.025-38.085,80.472-64.552l2.584,38.72L316.464,368.549z
			 M446.272,110.141c-13.759,78.444-63.036,146.11-133.472,183.28l-5.28,2.768L183.816,172.501l2.768-5.28
			C223.754,96.783,291.414,47.5,369.856,33.725l92.336-15.912L446.272,110.141z"/>
	</g>
</g>
<g>
	<g>
		<path d="M315.312,463.997c3.923-14.441,1.268-29.877-7.256-42.176c-15.94-23.018-47.521-28.757-70.54-12.818
			c-7,4.847-12.666,11.379-16.476,18.994c-10.875,21.958-33.217,35.893-57.72,36l34.336-34.344l-11.312-11.312l-48,48
			c-3.124,3.125-3.123,8.19,0.002,11.314c1.5,1.499,3.534,2.342,5.654,2.342h18.832c30.736,0.107,58.86-17.266,72.52-44.8
			c8.574-17.137,29.417-24.078,46.554-15.503c15.872,7.941,23.191,26.58,16.966,43.199l-2.4,6.312
			c-1.542,4.14,0.564,8.747,4.705,10.289c0.903,0.336,1.859,0.507,2.823,0.503h48v-16H315.312z"/>
	</g>
</g>
<g>
	<g>
		<rect x="368" y="463.997" width="16" height="16"/>
	</g>
</g>
<g>
	<g>
		<rect x="400" y="463.997" width="16" height="16"/>
	</g>
</g>
<g>
	<g>
		<rect x="52.4" y="435.998" transform="matrix(0.7071 -0.7071 0.7071 0.7071 -287.0092 195.0952)" width="79.192" height="16"/>
	</g>
</g>
<g>
	<g>
		<path d="M58.344,378.341L16,420.685v-16c-0.071-26.506,10.463-51.939,29.256-70.632C57.3,322.078,64.05,305.781,64,288.797v-0.8
			c-0.04-35.33-28.67-63.96-64-64v16c26.497,0.031,47.969,21.503,48,48v0.8c0.036,12.735-5.026,24.956-14.056,33.936
			C12.139,344.421-0.083,373.931,0,404.685v35.312c-0.001,3.235,1.947,6.153,4.936,7.392c2.99,1.239,6.432,0.553,8.72-1.736l56-56
			L58.344,378.341z"/>
	</g>
</g>
<g>
	<g>
		<rect x="4.649" y="455.998" transform="matrix(0.7071 -0.7071 0.7071 0.7071 -323.4214 147.1879)" width="22.624" height="16"/>
	</g>
</g>
<g>
	<g>
		<path d="M352,79.997c-26.51,0-48,21.49-48,48c0.001,1.486,0.081,2.971,0.24,4.448l-13.896,13.896l-8,8
			c-11.96,11.96-11.96,31.352,0,43.312c11.96,11.96,31.352,11.96,43.312,0l8-8l13.896-13.896c1.477,0.159,2.962,0.239,4.448,0.24
			c26.51,0,48-21.49,48-48S378.51,79.997,352,79.997z M314.344,186.341c-5.836,5.59-15.098,5.391-20.688-0.445
			c-5.421-5.659-5.421-14.584,0-20.243l2.344-2.344l20.688,20.688L314.344,186.341z M352,159.997
			c-1.951-0.018-3.895-0.219-5.808-0.6c-2.59-0.479-5.249,0.346-7.112,2.208L328,172.685l-4.688-4.688l17.008-17.008l22.208-7.4
			l-5.064-15.2l-8.8,2.936l2.944-8.8l-15.2-5.064l-7.4,22.208L312,156.685l-4.688-4.688l11.088-11.08
			c1.864-1.864,2.69-4.528,2.208-7.12c-0.382-1.91-0.586-3.852-0.608-5.8c0-17.673,14.327-32,32-32c17.673,0,32,14.327,32,32
			S369.674,159.997,352,159.997z"/>
	</g>
</g>
<g>
	<g>
		<rect x="396.689" y="63.992" transform="matrix(0.7071 -0.7071 0.7071 0.7071 68.5952 309.5867)" width="22.624" height="16"/>
	</g>
</g>
<g>
	<g>
		<rect x="408" y="119.997" width="24" height="16"/>
	</g>
</g>
<g>
	<g>
		<rect x="344" y="47.997" width="16" height="24"/>
	</g>
</g>
<g>
</g>
<g>
</g>
<g>
</g>
<g>
</g>
<g>
</g>
<g>
</g>
<g>
</g>
<g>
</g>
<g>
</g>
<g>
</g>
<g>
</g>
<g>
</g>
<g>
</g>
<g>
</g>
<g>
</g>
</svg>
