<?xml version="1.0" encoding="iso-8859-1"?>
<!-- Generator: Adobe Illustrator 19.0.0, SVG Export Plug-In . SVG Version: 6.00 Build 0)  -->
<svg version="1.1" id="Capa_1" xmlns="http://www.w3.org/2000/svg" xmlns:xlink="http://www.w3.org/1999/xlink" x="0px" y="0px"
	 viewBox="0 0 480.014 480.014" style="enable-background:new 0 0 480.014 480.014;" xml:space="preserve">
<g>
	<g>
		<path d="M480.014,96.006c-0.067-20.263-15.305-37.262-35.44-39.536C409.589,0.568,335.91-16.388,280.007,18.597
			c-21.845,13.672-38.681,34.044-47.993,58.073C213.259,28.512,165.846-2.292,114.222,0.142C49.364,4.012-0.962,58.24,0.014,123.206
			c0.147,55.913,26.297,108.576,70.752,142.488l18.12,13.744c-25.178,41.217-39.167,88.29-40.584,136.568h-8.288
			c-4.418,0-8,3.582-8,8v48c0,4.418,3.582,8,8,8h296c4.418,0,8-3.582,8-8v-48c-0.015-3.133-1.856-5.969-4.712-7.256l4.632-4.392
			C430.625,329.938,479.798,215.623,480.014,96.006z M80.43,252.91c-40.465-30.872-64.271-78.807-64.416-129.704
			c-0.963-56.417,42.643-103.6,98.96-107.08c57.37-2.784,106.134,41.468,108.918,98.838c0.081,1.679,0.122,3.361,0.122,5.042
			c0,4.418,3.582,8,8,8s8-3.582,8-8c-0.522-56.94,45.215-103.522,102.155-104.044c33.355-0.305,64.796,15.544,84.389,42.54
			c-15.872,5.652-26.491,20.656-26.544,37.504c0.201,63.198-28.998,122.896-79.008,161.536l-20.712,16.112l24.72-35.696
			c14.124-20.449,8.996-48.477-11.454-62.6c-17.859-12.334-41.977-10.164-57.346,5.16L154.926,281.782
			c-5.202,5.219-10.119,10.715-14.728,16.464L80.43,252.91z M96.014,464.006h-48v-32h48V464.006z M64.302,416.006
			c1.389-44.801,14.265-88.493,37.392-126.888l28.968,21.976c-21.134,31.029-33.077,67.395-34.456,104.912H64.302z M328.014,464.006
			h-216v-32h216V464.006z M332.934,400.742l-16.12,15.264H112.406c1.804-46.294,21.035-90.197,53.84-122.912L267.51,191.83
			c11.38-11.27,29.741-11.182,41.012,0.198c9.781,9.876,11.179,25.304,3.332,36.778l-54.4,78.608
			c-2.526,3.625-1.634,8.611,1.991,11.137c2.883,2.008,6.739,1.901,9.505-0.265l61.904-48.152
			c53.902-41.656,85.373-106.006,85.16-174.128c0-13.255,10.745-24,24-24s24,10.745,24,24
			C463.81,211.231,416.443,321.35,332.934,400.742z"/>
	</g>
</g>
<g>
	<g>
		<path d="M40.014,112.006h16c0.04-35.33,28.67-63.96,64-64v-16C75.851,32.055,40.062,67.844,40.014,112.006z"/>
	</g>
</g>
<g>
	<g>
		<rect x="40.014" y="128.006" width="16" height="16"/>
	</g>
</g>
<g>
</g>
<g>
</g>
<g>
</g>
<g>
</g>
<g>
</g>
<g>
</g>
<g>
</g>
<g>
</g>
<g>
</g>
<g>
</g>
<g>
</g>
<g>
</g>
<g>
</g>
<g>
</g>
<g>
</g>
</svg>
