<?xml version="1.0" encoding="iso-8859-1"?>
<!-- Generator: Adobe Illustrator 19.0.0, SVG Export Plug-In . SVG Version: 6.00 Build 0)  -->
<svg version="1.1" id="Capa_1" xmlns="http://www.w3.org/2000/svg" xmlns:xlink="http://www.w3.org/1999/xlink" x="0px" y="0px"
	 viewBox="0 0 480.008 480.008" style="enable-background:new 0 0 480.008 480.008;" xml:space="preserve">
<g>
	<g>
		<path d="M477.004,465.756l-40-32c-1.419-1.135-3.183-1.753-5-1.752h-76.248l-26.664-32h110.912c22.08-0.026,39.974-17.92,40-40
			v-320c-0.026-22.08-17.92-39.974-40-40h-400c-22.08,0.026-39.974,17.92-40,40v320c0.026,22.08,17.92,39.974,40,40h110.92
			l-26.664,32H48.004c-1.817-0.001-3.581,0.617-5,1.752l-40,32c-3.451,2.759-4.011,7.794-1.252,11.244
			c1.519,1.899,3.82,3.005,6.252,3.004h464c4.418,0.002,8.002-3.578,8.004-7.996C480.009,469.575,478.904,467.275,477.004,465.756z
			 M40.004,384.004c-13.255,0-24-10.745-24-24v-320c0-13.255,10.745-24,24-24h400c13.255,0,24,10.745,24,24v320
			c0,13.255-10.745,24-24,24H40.004z M171.756,400.004h136.496l26.672,32h-189.84L171.756,400.004z M30.812,464.004l20-16h378.4
			l19.984,16H30.812z"/>
	</g>
</g>
<g>
	<g>
		<path d="M440.004,32.004h-400c-4.418,0-8,3.582-8,8v288c0,4.418,3.582,8,8,8h400c4.418,0,8-3.582,8-8v-288
			C448.004,35.586,444.422,32.004,440.004,32.004z M432.004,320.004h-384v-272h384V320.004z"/>
	</g>
</g>
<g>
	<g>
		<rect x="200.004" y="352.004" width="80" height="16"/>
	</g>
</g>
<g>
	<g>
		<path d="M168.004,136.004h16c0-17.673,14.327-32,32-32v-16C189.507,88.035,168.035,109.507,168.004,136.004z"/>
	</g>
</g>
<g>
	<g>
		<path d="M408.004,64.004h-336c-4.418,0-8,3.582-8,8v32c0,4.418,3.582,8,8,8h76.2c-7.04,19.583-5.161,41.265,5.144,59.344
			l-9.344,9.344l-2.344-2.344c-3.124-3.123-8.188-3.123-11.312,0l-64,64c-11.96,11.96-11.96,31.352,0,43.312
			c11.96,11.96,31.352,11.96,43.312,0l64-64c3.123-3.124,3.123-8.188,0-11.312l-2.344-2.344l9.344-9.344
			c34.492,19.608,78.349,7.542,97.957-26.95c10.344-18.196,12.238-39.998,5.187-59.706h124.2c4.418,0,8-3.582,8-8v-32
			C416.004,67.586,412.422,64.004,408.004,64.004z M80.004,96.004v-16h90.848c-5.665,4.567-10.611,9.961-14.672,16H80.004z
			 M98.348,274.348c-5.836,5.59-15.098,5.391-20.688-0.445c-5.421-5.659-5.421-14.584,0-20.243l58.344-58.344l2.344,2.344l16,16
			l2.344,2.344L98.348,274.348z M160.004,196.692l-4.688-4.688l7.568-7.568c1.493,1.632,3.056,3.195,4.688,4.688L160.004,196.692z
			 M216.004,192.004c-30.928,0-56-25.072-56-56c0-30.928,25.072-56,56-56c30.913,0.035,55.965,25.087,56,56
			C272.004,166.932,246.932,192.004,216.004,192.004z M400.004,96.004H275.828c-4.061-6.039-9.007-11.433-14.672-16h138.848V96.004z
			"/>
	</g>
</g>
<g>
	<g>
		<path d="M408.004,144.004h-48v16h28.688l-46.288,46.264l-26.84-13.424c-2.925-1.461-6.444-0.995-8.888,1.176L239.3,253.924
			l-18.856-12.576c-2.982-1.986-6.92-1.747-9.64,0.584l-56,48l10.4,12.152l51.4-44.056l18.96,12.64
			c3.025,2.019,7.032,1.743,9.752-0.672l67.952-60.4l27.16,13.6c3.079,1.539,6.797,0.937,9.232-1.496l50.344-50.384v28.688h16v-48
			C416.004,147.586,412.422,144.004,408.004,144.004z"/>
	</g>
</g>
<g>
</g>
<g>
</g>
<g>
</g>
<g>
</g>
<g>
</g>
<g>
</g>
<g>
</g>
<g>
</g>
<g>
</g>
<g>
</g>
<g>
</g>
<g>
</g>
<g>
</g>
<g>
</g>
<g>
</g>
</svg>
