<?xml version="1.0" encoding="iso-8859-1"?>
<!-- Generator: Adobe Illustrator 19.0.0, SVG Export Plug-In . SVG Version: 6.00 Build 0)  -->
<svg version="1.1" id="Capa_1" xmlns="http://www.w3.org/2000/svg" xmlns:xlink="http://www.w3.org/1999/xlink" x="0px" y="0px"
	 viewBox="0 0 480 480" style="enable-background:new 0 0 480 480;" xml:space="preserve">
<g>
	<g>
		<path d="M472,272H272v-53.6c0.047-21.377-15.879-39.422-37.096-42.032c12.481-9.82,20.16-24.514,21.096-40.368
			c0-52.896-30.456-64-56-64s-56,11.104-56,64c0.929,15.862,8.609,30.566,21.096,40.392C143.89,179.005,127.969,197.033,128,218.4
			V240H96v-8c0-4.418-3.582-8-8-8H40v-8h16c4.418,0,8-3.582,8-8v-32c0-4.418-3.582-8-8-8H8c-4.418,0-8,3.582-8,8v32
			c0,4.418,3.582,8,8,8h16v8H8c-4.418,0-8,3.582-8,8v240c0,4.418,3.582,8,8,8h464c4.418,0,8-3.582,8-8V280
			C480,275.582,476.418,272,472,272z M240,194.192c9.755,4.071,16.078,13.638,16,24.208V272h-16V194.192z M160.416,127.536
			C162.584,100.72,175.2,88,200,88c22.704,0,35.2,10.736,38.776,33.136l-26.656-16c-3.789-2.273-8.703-1.044-10.976,2.745
			c-0.3,0.5-0.544,1.03-0.728,1.583C196.368,121.608,174.52,126.2,160.416,127.536z M161.112,143.584
			c13.696-1.128,38.4-5.272,49.92-20.44l28.6,17.16C236.416,159.896,212.28,176,200,176
			C182.157,172.961,167.314,160.588,161.112,143.584z M176,224v-32h48v32H176z M224,240v32h-48v-32H224z M144,218.4
			c-0.085-10.578,6.239-20.156,16-24.232V272h-16V218.4z M96,256h32v16H96V256z M16,200v-16h32v16H16z M16,240h64v32H16V240z
			 M464,464H16V288h448V464z"/>
	</g>
</g>
<g>
	<g>
		<path d="M464,0v104h-16V48c0-4.418-3.582-8-8-8V8c0-4.418-3.582-8-8-8h-32c-4.418,0-8,3.582-8,8v32c-4.418,0-8,3.582-8,8v56h-8V48
			c0-4.418-3.582-8-8-8V8c0-4.418-3.582-8-8-8h-32c-4.418,0-8,3.582-8,8v32c-4.418,0-8,3.582-8,8v56h-16V0h-16v192
			c0,4.418,3.582,8,8,8h184c4.418,0,8-3.582,8-8V0H464z M408,16h16v24h-16V16z M400,56h32v48h-32V56z M336,16h16v24h-16V16z M328,56
			h32v48h-32V56z M344,184h-16v-40h16V184z M376,184h-16v-40h16V184z M408,184h-16v-40h16V184z M464,184h-40v-48
			c0-4.418-3.582-8-8-8h-96c-4.418,0-8,3.582-8,8v48h-16v-64h168V184z"/>
	</g>
</g>
<g>
</g>
<g>
</g>
<g>
</g>
<g>
</g>
<g>
</g>
<g>
</g>
<g>
</g>
<g>
</g>
<g>
</g>
<g>
</g>
<g>
</g>
<g>
</g>
<g>
</g>
<g>
</g>
<g>
</g>
</svg>
