<?xml version="1.0" encoding="iso-8859-1"?>
<!-- Generator: Adobe Illustrator 19.0.0, SVG Export Plug-In . SVG Version: 6.00 Build 0)  -->
<svg version="1.1" id="Capa_1" xmlns="http://www.w3.org/2000/svg" xmlns:xlink="http://www.w3.org/1999/xlink" x="0px" y="0px"
	 viewBox="0 0 480 480" style="enable-background:new 0 0 480 480;" xml:space="preserve">
<g>
	<g>
		<path d="M336,240V48h-0.072c0.026-2.113-0.792-4.148-2.272-5.656l-40-40c-1.507-1.482-3.542-2.303-5.656-2.28V0H8
			C3.582,0,0,3.582,0,8v456c0,8.837,7.163,16,16,16h320c8.837,0,16-7.163,16-16V256C352,247.163,344.837,240,336,240z M296,27.312
			L308.688,40H296V27.312z M16,16h264v32c0,4.418,3.582,8,8,8h32v184h-92l-21.6-28.8c-1.511-2.014-3.882-3.2-6.4-3.2H40
			c-4.418,0-8,3.582-8,8v24H16V16z M208,240h-28l-12-16h28L208,240z M160,240h-28l-12-16h28L160,240z M112,240H48v-16h52L112,240z
			 M336,464H16V256h320V464z"/>
	</g>
</g>
<g>
	<g>
		<path d="M312,368H200c-4.418,0-8,3.582-8,8v64c0,4.418,3.582,8,8,8h112c4.418,0,8-3.582,8-8v-64C320,371.582,316.418,368,312,368z
			 M304,432h-96v-48h96V432z"/>
	</g>
</g>
<g>
	<g>
		<path d="M478.656,75.56l-48-72c-2.742-3.676-7.945-4.433-11.621-1.691c-0.642,0.479-1.212,1.049-1.691,1.691l-48,72
			C368.467,76.875,368,78.42,368,80v392c0,4.418,3.582,8,8,8h96c4.418,0,8-3.582,8-8V80C480,78.42,479.533,76.875,478.656,75.56z
			 M464,464h-80v-64h16c4.418,0,8-3.582,8-8v-96h16v96c0,4.418,3.582,8,8,8h32V464z M464,384h-24v-96c0-4.418-3.582-8-8-8h-32
			c-4.418,0-8,3.582-8,8v96h-8V82.4l40-60l40,60V384z"/>
	</g>
</g>
<g>
	<g>
		<rect x="32" y="24" width="136" height="16"/>
	</g>
</g>
<g>
	<g>
		<path d="M285.368,82.92c-0.048-0.056-0.064-0.12-0.112-0.176c-8.817-8.858-20.051-14.919-32.296-17.424h-0.08
			c-1.808-0.368-3.648-0.632-5.504-0.84c-0.296,0-0.584-0.104-0.888-0.128C244.344,64.112,242.184,64,240,64
			c-35.346,0-64,28.654-64,64c0,35.346,28.654,64,64,64c35.346-0.034,63.973-28.715,63.939-64.061
			C303.923,111.072,297.249,94.893,285.368,82.92z M248,80.688c0.304,0.048,0.608,0.08,0.912,0.136
			c0.832,0.192,1.64,0.392,2.456,0.592c0.864,0.208,1.736,0.408,2.584,0.664c0.64,0.192,1.256,0.44,1.888,0.664
			c3.425,1.2,6.702,2.786,9.768,4.728c0.48,0.304,0.976,0.592,1.456,0.92c0.24,0.168,0.464,0.352,0.704,0.52L248,108.688V80.688z
			 M232,80.72V120h-39.28C196.148,99.896,211.896,84.148,232,80.72z M267.944,167.072c-8.152,5.824-17.925,8.946-27.944,8.928
			c-23.404-0.024-43.379-16.923-47.28-40H240c2.124-0.009,4.159-0.854,5.664-2.352l33.416-33.424
			C294.465,121.759,289.479,151.687,267.944,167.072z"/>
	</g>
</g>
<g>
	<g>
		<rect x="32" y="48" width="64" height="16"/>
	</g>
</g>
<g>
	<g>
		<path d="M155.752,89.184l-61.12,38.192l-28.696-7.2c-2.338-0.586-4.816-0.086-6.744,1.36l-32,24l9.6,12.8l28.96-21.648
			l28.304,7.072c2.106,0.526,4.335,0.174,6.176-0.976l64-40L155.752,89.184z"/>
	</g>
</g>
<g>
	<g>
		<path d="M312,272H40c-4.418,0-8,3.582-8,8v32c0,4.418,3.582,8,8,8h272c4.418,0,8-3.582,8-8v-32C320,275.582,316.418,272,312,272z
			 M304,304H48v-16h256V304z"/>
	</g>
</g>
<g>
</g>
<g>
</g>
<g>
</g>
<g>
</g>
<g>
</g>
<g>
</g>
<g>
</g>
<g>
</g>
<g>
</g>
<g>
</g>
<g>
</g>
<g>
</g>
<g>
</g>
<g>
</g>
<g>
</g>
</svg>
