<?xml version="1.0" encoding="iso-8859-1"?>
<!-- Generator: Adobe Illustrator 19.0.0, SVG Export Plug-In . SVG Version: 6.00 Build 0)  -->
<svg version="1.1" id="Capa_1" xmlns="http://www.w3.org/2000/svg" xmlns:xlink="http://www.w3.org/1999/xlink" x="0px" y="0px"
	 viewBox="0 0 480 480" style="enable-background:new 0 0 480 480;" xml:space="preserve">
<g>
	<g>
		<path d="M472,0H8C3.582,0,0,3.582,0,8v32c0,4.418,3.582,8,8,8h16v263.568l-2.528,0.84c-2.975,0.993-5.096,3.633-5.424,6.752
			l-16,152c-0.464,4.394,2.722,8.332,7.116,8.796C7.442,479.985,7.721,480,8,480h296c2.818,0,5.429-1.483,6.872-3.904l53.6-89.84
			c12.032-8.224,20.897-20.309,25.128-34.256H448c4.418,0,8-3.582,8-8V48h16c4.418,0,8-3.582,8-8V8C480,3.582,476.418,0,472,0z
			 M88,464H16.888l14.528-138.04L88,307.104V464z M88,290.24l-48,16V176c0.328-0.031,0.654-0.081,0.976-0.152
			c3.754,32.444,19.837,62.203,44.92,83.12c0.68,0.568,1.408,1.056,2.104,1.6V290.24z M40,110.672V48h62.672
			C74.084,59.433,51.433,82.084,40,110.672z M144,56c53.019,0,96,42.981,96,96h-24c-22.08-0.026-39.974-17.92-40-40
			c0.004-4.418-3.575-8.003-7.993-8.007c-0.586,0-1.17,0.063-1.743,0.191l-4.8,1.072c-40.375,8.919-78.811,25.043-113.464,47.6V152
			C48,98.981,90.981,56,144,56z M104,464V357.768l28.352-9.448l-20.072,73.6c-0.518,1.898-0.319,3.92,0.56,5.68l18.216,36.4H104z
			 M104,340.896v-15.952l19.144,9.6L104,340.896z M128.52,423.16L144,366.4l15.48,56.76L144,454.112L128.52,423.16z M184,464
			h-27.056l18.208-36.424c0.879-1.76,1.078-3.782,0.56-5.68l-20.072-73.6l28.36,9.472V464z M184,340.896l-19.144-6.4L184,324.944
			V340.896z M184,296v11.056l-40,20l-40-20V270.64c25.206,12.481,54.794,12.481,80,0V296z M96.136,246.672
			c-23.878-19.966-38.301-49.021-39.768-80.112c31.962-20.886,67.325-36.03,104.496-44.752c4.79,26.705,28.005,46.154,55.136,46.192
			h15.616c-1.84,30.584-16.227,59.051-39.76,78.672C164.134,269.782,123.858,269.782,96.136,246.672z M299.456,464H200V307.104
			l26.4,8.8c-6.703,16.224,1.016,34.809,17.239,41.512c3.113,1.286,6.41,2.069,9.769,2.32c5.291,11.497,13.792,21.221,24.48,28
			l-13.328,33.312l14.856,5.936l12.872-32.184c8.848,3.39,18.237,5.151,27.712,5.2c6.407-0.015,12.788-0.799,19.008-2.336
			L299.456,464z M312,312c0.868,0.029,1.725,0.202,2.536,0.512c0.381,0.134,0.753,0.294,1.112,0.48
			c3.91,1.97,5.484,6.737,3.514,10.647c-1.36,2.7-4.138,4.392-7.162,4.361h-33.472c-3.384,0.001-6.402,2.131-7.536,5.32
			c-2.938,8.334-12.076,12.708-20.41,9.769c-8.334-2.938-12.708-12.076-9.769-20.41c2.268-6.433,8.366-10.721,15.187-10.679H312z
			 M264,296v-64c0-4.418,3.582-8,8-8s8,3.582,8,8v64H264z M294.528,224c-2.42-6.776-7.753-12.108-14.528-14.528V184h16v40H294.528z
			 M296,280c0-4.418,3.582-8,8-8s8,3.582,8,8v16h-16V280z M320,384c-20.433,0.505-39.607-9.843-50.4-27.2
			c5.852-2.759,10.734-7.22,14.008-12.8H312c6.789-0.018,13.248-2.928,17.76-8H336c5.924-0.018,11.628-2.243,16-6.24
			c6.412,5.986,15.653,7.843,23.88,4.8c0,0.48,0.12,0.96,0.12,1.44C376,362.472,350.88,384,320,384z M328,302.24V280
			c0-4.418,3.582-8,8-8s8,3.582,8,8v32c0,4.418-3.582,8-8,8C335.982,313.211,333.072,306.752,328,302.24z M376,312
			c0,4.418-3.582,8-8,8s-8-3.582-8-8v-32c0-4.418,3.582-8,8-8s8,3.582,8,8V312z M440,336h-48c-0.065-4.868-0.754-9.707-2.048-14.4
			c1.342-3.023,2.039-6.292,2.048-9.6v-32c0.058-13.197-10.593-23.943-23.79-24.002c-5.995-0.027-11.781,2.201-16.21,6.242
			c-9.043-8.324-22.957-8.324-32,0c-6.442-6.023-15.737-7.882-24-4.8V240h8c4.418,0,8-3.582,8-8v-56c0-4.418-3.582-8-8-8h-32
			c-4.418,0-8,3.582-8,8v33.472c-9.555,3.378-15.958,12.394-16,22.528v65.136c-4.035,1.045-7.824,2.874-11.152,5.384l-2.336-0.8
			L200,290.24v-29.672c0.696-0.544,1.416-1.032,2.104-1.6c27.175-22.663,43.669-55.631,45.512-90.968H248c4.418,0,8-3.582,8-8v-8
			c-0.068-45.859-28.06-87.051-70.672-104H440V336z M464,32H16V16h448V32z"/>
	</g>
</g>
<g>
	<g>
		<path d="M360,120h-32c-4.418,0-8,3.582-8,8v104c0,4.418,3.582,8,8,8h32c4.418,0,8-3.582,8-8V128C368,123.582,364.418,120,360,120z
			 M352,224h-16v-88h16V224z"/>
	</g>
</g>
<g>
	<g>
		<path d="M416,64h-32c-4.418,0-8,3.582-8,8v160c0,4.418,3.582,8,8,8h32c4.418,0,8-3.582,8-8V72C424,67.582,420.418,64,416,64z
			 M408,224h-16V80h16V224z"/>
	</g>
</g>
<g>
</g>
<g>
</g>
<g>
</g>
<g>
</g>
<g>
</g>
<g>
</g>
<g>
</g>
<g>
</g>
<g>
</g>
<g>
</g>
<g>
</g>
<g>
</g>
<g>
</g>
<g>
</g>
<g>
</g>
</svg>
