<?xml version="1.0" encoding="iso-8859-1"?>
<!-- Generator: Adobe Illustrator 19.0.0, SVG Export Plug-In . SVG Version: 6.00 Build 0)  -->
<svg version="1.1" id="Capa_1" xmlns="http://www.w3.org/2000/svg" xmlns:xlink="http://www.w3.org/1999/xlink" x="0px" y="0px"
	 viewBox="0 0 480.001 480.001" style="enable-background:new 0 0 480.001 480.001;" xml:space="preserve">
<g>
	<g>
		<path d="M472.001,424h-24.8l-15.248-144.8c-0.328-3.119-2.449-5.759-5.424-6.752l-66.528-22.216V220.56
			c0.696-0.544,1.416-1.032,2.104-1.6c27.174-22.66,43.668-55.626,45.512-90.96h0.384c4.418,0,8-3.582,8-8v-8
			c0-61.856-50.144-112-112-112s-112,50.144-112,112v16c-0.356,4.063,2.649,7.644,6.712,8c0.758,0.066,1.522,0.015,2.264-0.152
			c3.755,32.443,19.838,62.202,44.92,83.12c0.68,0.568,1.408,1.056,2.104,1.6v29.672l-66.528,22.176
			c-2.975,0.993-5.096,3.633-5.424,6.752L160.801,424h-18.272c0.948-2.562,1.446-5.268,1.472-8c0-13.255-10.745-24-24-24H93.537
			l-31.656-84.056l34.792-27.832c8.534,2.902,17.977,0.661,24.296-5.768l36.688-36.688c16.15-16.607,15.779-43.162-0.828-59.312
			c-16.28-15.832-42.204-15.832-58.484,0l-36.688,36.68c-6.445,6.317-8.691,15.772-5.776,24.312L1.753,307
			c-2.547,3.184-2.292,7.774,0.592,10.656l16,16c2.882,2.884,7.472,3.139,10.656,0.592l19.744-15.792L76.441,392h-20.44
			c-13.255,0-24,10.745-24,24c0.026,2.732,0.524,5.438,1.472,8H8.001c-4.418,0-8,3.582-8,8v40c0,4.418,3.582,8,8,8h464
			c4.418,0,8-3.582,8-8v-40C480.001,427.582,476.419,424,472.001,424z M72.969,226.336v0.008l36.688-36.688
			c10.016-10.246,26.442-10.432,36.688-0.416s10.432,26.442,0.416,36.688c-0.137,0.14-0.275,0.279-0.416,0.416l-36.688,36.68
			c-3.124,3.123-8.188,3.123-11.312,0l-25.376-25.376C69.846,234.524,69.846,229.46,72.969,226.336z M24.593,317.28l-5.872-5.872
			l46.832-58.536l17.6,17.6L24.593,317.28z M416.593,285.96L431.121,424h-71.12V267.096L416.593,285.96z M208.001,112
			c0-53.019,42.981-96,96-96s96,42.981,96,96h-24c-22.08-0.026-39.974-17.92-40-40c-0.001-4.418-3.583-7.999-8.001-7.999
			c-0.583,0-1.165,0.064-1.735,0.191l-4.8,1.072c-40.374,8.921-78.809,25.046-113.464,47.6V112z M216.369,126.56
			c31.962-20.886,67.325-36.03,104.496-44.752c4.79,26.705,28.005,46.154,55.136,46.192h15.616
			c-1.838,30.585-16.225,59.053-39.76,78.672c-27.716,23.111-67.988,23.111-95.704,0C232.268,186.71,217.839,157.654,216.369,126.56
			z M292.345,308.313l-20.064,73.6c-0.518,1.898-0.319,3.92,0.56,5.68L291.057,424h-27.056V317.76L292.345,308.313z
			 M264.001,300.896v-15.952l19.144,9.6L264.001,300.896z M288.521,383.152l15.48-56.752l15.48,56.76l-15.48,30.952L288.521,383.152
			z M335.161,387.568c0.879-1.76,1.078-3.782,0.56-5.68l-20.064-73.6l28.344,9.48V424h-27.056L335.161,387.568z M324.857,294.496
			l19.144-9.552v15.952L324.857,294.496z M304.001,287.048l-40-20v-36.408c12.441,6.14,26.126,9.342,40,9.36
			c13.875-0.02,27.559-3.225,40-9.368v36.416L304.001,287.048z M191.417,285.96l56.584-18.864V424h-71.12L191.417,285.96z
			 M56.001,408h64c4.418,0,8,3.582,8,8s-3.582,8-8,8h-64c-4.418,0-8-3.582-8-8S51.583,408,56.001,408z M464.001,464h-448v-24h448
			V464z"/>
	</g>
</g>
<g>
	<g>
		<path d="M182.868,83.881c-0.783-1.305-1.921-2.36-3.283-3.041l-19.584-9.784V24c0-13.255-10.745-24-24-24h-112
			c-13.255,0-24,10.745-24,24v88c0,13.255,10.745,24,24,24h112c13.255,0,24-10.745,24-24v-5.072l20.12-12.072
			C183.91,92.584,185.14,87.67,182.868,83.881z M147.889,95.544c-2.41,1.444-3.886,4.047-3.888,6.856v9.6c0,4.418-3.582,8-8,8h-112
			c-4.418,0-8-3.582-8-8V24c0-4.418,3.582-8,8-8h112c4.418,0,8,3.582,8,8v52c-0.001,3.032,1.712,5.805,4.424,7.16l10.968,5.48
			L147.889,95.544z"/>
	</g>
</g>
<g>
	<g>
		<rect x="32.001" y="32" width="16" height="16"/>
	</g>
</g>
<g>
	<g>
		<rect x="64.001" y="32" width="16" height="16"/>
	</g>
</g>
<g>
	<g>
		<rect x="96.001" y="32" width="16" height="16"/>
	</g>
</g>
<g>
</g>
<g>
</g>
<g>
</g>
<g>
</g>
<g>
</g>
<g>
</g>
<g>
</g>
<g>
</g>
<g>
</g>
<g>
</g>
<g>
</g>
<g>
</g>
<g>
</g>
<g>
</g>
<g>
</g>
</svg>
