<?xml version="1.0" encoding="iso-8859-1"?>
<!-- Generator: Adobe Illustrator 19.0.0, SVG Export Plug-In . SVG Version: 6.00 Build 0)  -->
<svg version="1.1" id="Capa_1" xmlns="http://www.w3.org/2000/svg" xmlns:xlink="http://www.w3.org/1999/xlink" x="0px" y="0px"
	 viewBox="0 0 480 480" style="enable-background:new 0 0 480 480;" xml:space="preserve">
<g>
	<g>
		<path d="M248,400c-22.091,0-40,17.909-40,40c0,22.091,17.909,40,40,40c22.091,0,40-17.909,40-40
			C287.974,417.92,270.08,400.026,248,400z M248,464c-13.255,0-24-10.745-24-24s10.745-24,24-24s24,10.745,24,24
			S261.255,464,248,464z"/>
	</g>
</g>
<g>
	<g>
		<path d="M408,400c-22.091,0-40,17.909-40,40c0,22.091,17.909,40,40,40c22.091,0,40-17.909,40-40
			C447.974,417.92,430.08,400.026,408,400z M408,464c-13.255,0-24-10.745-24-24s10.745-24,24-24s24,10.745,24,24
			S421.255,464,408,464z"/>
	</g>
</g>
<g>
	<g>
		<path d="M472,16h-97.664C302.516,16.08,237.416,58.264,208,123.784V8c0-4.418-3.582-8-8-8h-32c-4.418,0-8,3.582-8,8v8H40
			c-4.418,0-8,3.582-8,8v216H8c-4.418,0-8,3.582-8,8v32c0,4.418,3.582,8,8,8h152v120c0,4.418,3.582,8,8,8h32c4.418,0,8-3.582,8-8
			v-6.928c21.325-22.162,56.578-22.841,78.74-1.517c3.81,3.666,7.079,7.857,9.708,12.445c1.428,2.473,4.065,3.997,6.92,4h49.264
			c2.855-0.003,5.492-1.527,6.92-4c15.4-26.755,49.574-35.96,76.328-20.56c8.547,4.92,15.64,12.013,20.56,20.56
			c1.428,2.473,4.065,3.997,6.92,4H472c4.418,0,8-3.582,8-8V24C480,19.582,476.418,16,472,16z M96,32h16v35.056l-4.424-2.208
			c-2.253-1.128-4.906-1.128-7.16,0L96,67.056V32z M160,272H16v-16h144V272z M160,240H48v-96h32v48
			c-0.002,4.418,3.578,8.002,7.996,8.004c1.243,0.001,2.468-0.288,3.58-0.844L104,192.944l12.424,6.208
			c3.952,1.975,8.757,0.372,10.732-3.58c0.554-1.109,0.843-2.332,0.844-3.572v-48h32V240z M96,179.056V144h16v35.056l-4.424-2.208
			c-2.253-1.128-4.906-1.128-7.16,0L96,179.056z M160,128H48V32h32v48c-0.002,4.418,3.578,8.002,7.996,8.004
			c1.243,0.001,2.468-0.288,3.58-0.844L104,80.944l12.424,6.208c3.952,1.975,8.757,0.372,10.732-3.58
			c0.554-1.109,0.843-2.332,0.844-3.572V32h32V128z M208,198.336C208.101,106.513,282.513,32.101,374.336,32H432v190.728
			c-17.681-7.768-37.582-8.849-56-3.04V204c-0.02-14.945-7.624-28.858-20.192-36.944c21.601-15.368,26.654-45.336,11.287-66.937
			s-45.336-26.654-66.937-11.287s-26.654,45.336-11.287,66.937c4.103,5.767,9.431,10.556,15.601,14.023
			c-2.313,1.851-4.433,3.931-6.328,6.208H288c-9.237,0.031-17.637,5.36-21.6,13.704l-39.88-13.296l-5.064,15.2l16.272,5.424
			L208,281.288V198.336z M320,192c4.418,0,8,3.582,8,8s-3.582,8-8,8h-32c-4.418,0-8-3.582-8-8s3.582-8,8-8H320z M296,128
			c0-17.673,14.327-32,32-32c17.673,0,32,14.327,32,32s-14.327,32-32,32C310.327,160,296,145.673,296,128z M288,224v40
			c-26.497,0.031-47.969,21.503-48,48v8h-28.688l41.6-117.92l11.936,4C267.607,216.614,277.111,223.97,288,224z M256,312
			c0-17.673,14.327-32,32-32h33.6c-1.069,5.266-1.605,10.626-1.6,16v24h-64V312z M304,264v-40h16
			c13.233-0.043,23.925-10.804,23.883-24.037c-0.035-10.959-7.501-20.497-18.131-23.163c14.89-3.597,29.876,5.558,33.474,20.447
			c0.534,2.211,0.794,4.478,0.774,6.753v22.824c-14.751,8.552-26.402,21.571-33.272,37.176H304z M464,394.84
			c-13.671-16.925-34.244-26.785-56-26.84c-24.013,0.063-46.425,12.056-59.8,32h-40.4c-21.919-32.971-66.416-41.931-99.387-20.012
			c-5.36,3.563-10.216,7.832-14.437,12.692c-1.276,1.46-1.978,3.333-1.976,5.272V400h-16V16h16v312c0,4.418,3.582,8,8,8h264V394.84z
			 M464,320H336v-24c0-35.346,28.654-64,64-64c35.346,0,64,28.654,64,64V320z M464,248.208c-4.55-6.079-9.936-11.485-16-16.056V32
			h16V248.208z"/>
	</g>
</g>
<g>
</g>
<g>
</g>
<g>
</g>
<g>
</g>
<g>
</g>
<g>
</g>
<g>
</g>
<g>
</g>
<g>
</g>
<g>
</g>
<g>
</g>
<g>
</g>
<g>
</g>
<g>
</g>
<g>
</g>
</svg>
