<?xml version="1.0" encoding="iso-8859-1"?>
<!-- Generator: Adobe Illustrator 19.0.0, SVG Export Plug-In . SVG Version: 6.00 Build 0)  -->
<svg version="1.1" id="Capa_1" xmlns="http://www.w3.org/2000/svg" xmlns:xlink="http://www.w3.org/1999/xlink" x="0px" y="0px"
	 viewBox="0 0 480 480" style="enable-background:new 0 0 480 480;" xml:space="preserve">
<g>
	<g>
		<path d="M477.152,305.88c-1.55-1.245-3.513-1.86-5.496-1.72c5.375-6.91,8.309-15.406,8.344-24.16c0-4.418-3.582-8-8-8h-8v-40
			c-0.004-13.841-5.16-27.185-14.464-37.432c9.025-5.821,14.473-15.829,14.464-26.568c0-17.673-14.327-32-32-32
			c-4.12-0.006-8.199,0.81-12,2.4c-7.68-3.2-16.32-3.2-24,0c-3.801-1.59-7.88-2.406-12-2.4c-8.093,0.016-15.875,3.117-21.76,8.672
			c-2.129,0.368-4.214,0.952-6.224,1.744c-3.805-1.596-7.89-2.418-12.016-2.416c-1.287,0.052-2.569,0.183-3.84,0.392
			c-5.471-0.759-11.045-0.061-16.16,2.024c-3.8-1.595-7.879-2.417-12-2.416c-17.673,0-32,14.327-32,32
			c-0.009,10.739,5.439,20.747,14.464,26.568C285.16,212.815,280.004,226.159,280,240v40h-16c-4.418,0-8,3.582-8,8
			c0.026,22.08,17.92,39.974,40,40h36.12l-192,33.104c2.551-5.341,3.876-11.185,3.88-17.104c0-4.418-3.582-8-8-8h-8v-40
			c-0.004-13.841-5.16-27.185-14.464-37.432c9.025-5.821,14.473-15.829,14.464-26.568c0-17.673-14.327-32-32-32
			c-4.12-0.006-8.199,0.81-12,2.4c-7.68-3.2-16.32-3.2-24,0c-3.801-1.59-7.88-2.406-12-2.4c-17.673,0-32,14.327-32,32
			c-0.009,10.739,5.439,20.747,14.464,26.568C21.16,268.815,16.004,282.159,16,296v40H8c-4.418,0-8,3.582-8,8
			c0.018,16.224,9.833,30.83,24.848,36.976L6.64,384.112C2.801,384.774-0.002,388.105,0,392v32c0.002,4.418,3.585,7.998,8.004,7.996
			c0.455,0,0.908-0.039,1.356-0.116l212.16-36.576L185.6,443.2c-2.651,3.535-1.935,8.549,1.6,11.2c1.385,1.039,3.069,1.6,4.8,1.6h96
			c4.418,0,8-3.582,8-8c0-1.731-0.561-3.415-1.6-4.8l-40.152-53.536L473.36,351.88c3.836-0.662,6.638-3.988,6.64-7.88v-32
			C480,309.64,478.958,307.4,477.152,305.88z M384,152c2.819,0.016,5.582,0.789,8,2.24c2.487,1.448,5.561,1.448,8.048,0
			c4.901-2.976,11.051-2.976,15.952,0c2.487,1.448,5.561,1.448,8.048,0c2.404-1.442,5.149-2.216,7.952-2.24c8.837,0,16,7.163,16,16
			c-0.001,7.373-5.106,13.763-12.296,15.392c-17.151-9.858-38.249-9.858-55.4,0C373.11,181.766,368.002,175.375,368,168
			C368,159.163,375.163,152,384,152z M368,232c0-22.091,17.909-40,40-40c22.091,0,40,17.909,40,40v40h-17.472
			c0.948-2.562,1.446-5.268,1.472-8c0-13.255-10.745-24-24-24c-4.418,0-8-3.582-8-8s3.582-8,8-8s8,3.582,8,8h16
			c-0.042-10.134-6.445-19.15-16-22.528V200h-16v9.472c-12.473,4.393-19.023,18.066-14.629,30.539
			c3.38,9.596,12.455,16.009,22.629,15.989c4.418,0,8,3.582,8,8s-3.582,8-8,8s-8-3.582-8-8h-16c0.026,2.732,0.524,5.438,1.472,8H368
			V232z M462.632,288c-3.401,9.583-12.463,15.99-22.632,16h-64c-10.169-0.01-19.231-6.417-22.632-16H462.632z M352,232v40h-8
			c-4.418,0-8,3.582-8,8h-8v-40c-0.088-19.73,14.276-36.554,33.776-39.56C355.398,209.728,351.99,220.733,352,232z M344,160
			c2.819,0.016,5.582,0.789,8,2.24c0.184,0.104,0.392,0.152,0.584,0.24c-1.513,7.837,0.073,15.956,4.424,22.648
			c-1.792,0.36-3.536,0.8-5.256,1.336c-5.105-1.574-10.41-2.404-15.752-2.464c-1.872,0-3.72,0.104-5.552,0.28
			c-1.587-2.471-2.436-5.343-2.448-8.28C328,167.163,335.163,160,344,160z M312,160c1.397,0.003,2.786,0.203,4.128,0.592
			c-4.858,8.473-5.45,18.736-1.6,27.712c-2.131,0.899-4.205,1.931-6.208,3.088c-7.2-1.62-12.317-8.012-12.32-15.392
			C296,167.163,303.163,160,312,160z M296,240c0.029-19.04,13.458-35.428,32.12-39.2c-10.308,10.446-16.098,24.524-16.12,39.2v40
			h-16V240z M296,312c-10.169-0.01-19.231-6.417-22.632-16h66.016c2.826,6.358,7.256,11.872,12.856,16H296z M48,216
			c2.819,0.016,5.582,0.789,8,2.24c2.487,1.448,5.561,1.448,8.048,0c4.901-2.976,11.051-2.976,15.952,0
			c2.487,1.448,5.561,1.448,8.048,0c2.404-1.442,5.149-2.216,7.952-2.24c8.837,0,16,7.163,16,16
			c-0.001,7.373-5.106,13.763-12.296,15.392c-17.151-9.858-38.249-9.858-55.4,0C37.11,245.766,32.002,239.375,32,232
			C32,223.163,39.163,216,48,216z M32,296c0-22.091,17.909-40,40-40s40,17.909,40,40v40H94.528c0.948-2.562,1.446-5.268,1.472-8
			c0-13.255-10.745-24-24-24c-4.418,0-8-3.582-8-8s3.582-8,8-8s8,3.582,8,8h16c-0.042-10.134-6.445-19.15-16-22.528V264H64v9.472
			c-12.473,4.393-19.023,18.066-14.629,30.539C52.751,313.607,61.826,320.019,72,320c4.418,0,8,3.582,8,8s-3.582,8-8,8s-8-3.582-8-8
			H48c0.026,2.732,0.524,5.438,1.472,8H32V296z M17.368,352h109.248c-2.111,5.904-6.442,10.751-12.072,13.512l-14.4,2.488H40
			C29.831,367.99,20.769,361.583,17.368,352z M272,440h-64l32-42.664L272,440z M464,337.264l-448,77.24v-15.768l448-77.24V337.264z"
			/>
	</g>
</g>
<g>
	<g>
		<polygon points="336,40 336,24 320,24 320,40 304,40 304,56 320,56 320,72 336,72 336,56 352,56 352,40 		"/>
	</g>
</g>
<g>
	<g>
		<polygon points="464,88 464,72 448,72 448,88 432,88 432,104 448,104 448,120 464,120 464,104 480,104 480,88 		"/>
	</g>
</g>
<g>
	<g>
		<rect x="432" y="24" width="16" height="16"/>
	</g>
</g>
<g>
	<g>
		<rect x="264" y="24" width="16" height="16"/>
	</g>
</g>
<g>
	<g>
		<rect x="296" y="112" width="16" height="16"/>
	</g>
</g>
<g>
</g>
<g>
</g>
<g>
</g>
<g>
</g>
<g>
</g>
<g>
</g>
<g>
</g>
<g>
</g>
<g>
</g>
<g>
</g>
<g>
</g>
<g>
</g>
<g>
</g>
<g>
</g>
<g>
</g>
</svg>
