<?xml version="1.0" encoding="iso-8859-1"?>
<!-- Generator: Adobe Illustrator 19.0.0, SVG Export Plug-In . SVG Version: 6.00 Build 0)  -->
<svg version="1.1" id="Capa_1" xmlns="http://www.w3.org/2000/svg" xmlns:xlink="http://www.w3.org/1999/xlink" x="0px" y="0px"
	 viewBox="0 0 480 480" style="enable-background:new 0 0 480 480;" xml:space="preserve">
<g>
	<g>
		<path d="M303.998,0c-44.545-0.033-87.411,16.995-119.792,47.584c-57.52-22.352-122.269,6.157-144.621,63.676
			c-5.047,12.988-7.62,26.806-7.587,40.74v16c0,4.418,3.582,8,8,8c0.431-0.032,0.859-0.099,1.28-0.2
			c3.698,32.414,19.662,62.184,44.616,83.2c0.68,0.568,1.408,1.056,2.104,1.6v29.64L21.47,312.416
			c-2.975,0.993-5.096,3.633-5.424,6.752l-16,152c-0.459,4.394,2.73,8.329,7.125,8.789C7.445,479.985,7.722,480,7.998,480h272
			c4.418-0.004,7.996-3.59,7.992-8.008c0-0.265-0.014-0.529-0.04-0.792l-12.8-121.688c9.529,1.638,19.179,2.471,28.848,2.488
			c97.202,0,176-78.798,176-176S401.2,0,303.998,0z M87.998,464h-71.12l14.536-138.04l56.584-18.856V464z M274.118,18.856
			L294.174,69c2.812,6.964,10.077,11.048,17.488,9.832l37.6-6.256l34.168,34.176l-6.768,40.616l-67.2,47.056l-4.528-22.632
			c-1.287-6.472-6.432-11.479-12.936-12.592l-36-6.4V152c-0.049-40.044-21.473-77.015-56.192-96.968
			C220.933,36.602,246.579,24.117,274.118,18.856z M47.998,152c0-53.019,42.981-96,96-96s96,42.981,96,96h-24
			c-22.08-0.026-39.974-17.92-40-40c0.004-4.418-3.575-8.003-7.993-8.007c-0.586,0-1.17,0.063-1.743,0.191l-4.8,1.072
			c-40.374,8.922-78.809,25.046-113.464,47.6V152z M103.998,464V357.768l28.352-9.448l-20.072,73.6
			c-0.518,1.898-0.319,3.92,0.56,5.68l18.216,36.4H103.998z M103.998,340.896v-15.952l19.144,9.6L103.998,340.896z M128.518,423.16
			l15.48-56.76l15.48,56.76l-15.48,30.952L128.518,423.16z M183.998,464h-27.056l18.208-36.424c0.879-1.76,1.078-3.782,0.56-5.68
			l-20.072-73.6l28.36,9.472V464z M183.998,340.896l-19.144-6.4l19.144-9.552V340.896z M183.998,307.048l-40,20l-40-20V270.64
			c12.441,6.14,26.126,9.342,40,9.36c13.875-0.021,27.559-3.226,40-9.368V307.048z M191.854,246.672
			c-27.717,23.107-67.987,23.107-95.704,0c-23.6-19.849-37.972-48.549-39.728-79.336l-0.064-0.8
			c31.965-20.886,67.331-36.034,104.504-44.76c4.776,26.717,27.995,46.183,55.136,46.224h15.576
			C229.66,198.555,215.304,226.99,191.854,246.672z M199.998,464V307.104l56.584,18.856L271.118,464H199.998z M303.998,336
			c-10.282-0.069-20.534-1.141-30.608-3.2l-1.44-13.672c-0.328-3.119-2.449-5.759-5.424-6.752l-66.528-22.136v-29.672
			c0.696-0.544,1.416-1.032,2.104-1.6c26.983-22.645,43.44-55.41,45.496-90.576V168h0.4c0.31-0.042,0.617-0.104,0.92-0.184
			l40.304,7.112l4.536,22.672c1.058,5.3,4.719,9.708,9.736,11.72c1.221,0.467,2.494,0.784,3.792,0.944
			c-6.781,2.473-11.037,9.214-10.352,16.4l5.776,63.528c0.786,8.802,8.558,15.299,17.36,14.513c3.063-0.274,5.982-1.424,8.408-3.313
			l54.576-42.456c6.59-5.16,8.109-14.517,3.488-21.496l-9.832-14.76c-2.58-3.873-6.718-6.432-11.336-7.008l-50.4-6.296
			c1.276-0.439,2.491-1.038,3.616-1.784l67.2-47.048c3.515-2.475,5.896-6.25,6.616-10.488l6.768-40.608
			c0.854-5.103-0.812-10.303-4.472-13.96l-34.136-34.232c-3.656-3.649-8.849-5.309-13.944-4.456l-37.6,6.264l-18.56-46.4
			C294.958,16.28,299.454,16,303.998,16c51.526,0.044,99.868,24.938,129.832,66.856l-12.8,12.8
			c-3.444,3.432-5.135,8.248-4.592,13.08l7.464,67.08l-6.792,40.72c-1.207,7.272,2.711,14.427,9.488,17.328l22.296,9.552
			C422.679,299.802,366.18,335.903,303.998,336z M312.846,225.168l50.52,6.312l9.84,14.768l-54.568,42.448L312.846,225.168z
			 M432.926,219.152l6.8-40.752c0.235-1.439,0.273-2.903,0.112-4.352l-7.464-67.112l10.344-10.344
			c23.215,40.084,27.686,88.332,12.232,132L432.926,219.152z"/>
	</g>
</g>
<g>
</g>
<g>
</g>
<g>
</g>
<g>
</g>
<g>
</g>
<g>
</g>
<g>
</g>
<g>
</g>
<g>
</g>
<g>
</g>
<g>
</g>
<g>
</g>
<g>
</g>
<g>
</g>
<g>
</g>
</svg>
