<?xml version="1.0" encoding="iso-8859-1"?>
<!-- Generator: Adobe Illustrator 19.0.0, SVG Export Plug-In . SVG Version: 6.00 Build 0)  -->
<svg version="1.1" id="Capa_1" xmlns="http://www.w3.org/2000/svg" xmlns:xlink="http://www.w3.org/1999/xlink" x="0px" y="0px"
	 viewBox="0 0 480.099 480.099" style="enable-background:new 0 0 480.099 480.099;" xml:space="preserve">
<g>
	<g>
		<rect x="28.051" y="11.128" transform="matrix(0.7071 -0.7071 0.7071 0.7071 -9.3111 33.7221)" width="16" height="33.944"/>
	</g>
</g>
<g>
	<g>
		<rect x="0.045" y="64.099" width="32" height="16"/>
	</g>
</g>
<g>
	<g>
		<rect x="291.082" y="20.099" transform="matrix(0.7071 -0.7071 0.7071 0.7071 70.3578 226.0573)" width="33.944" height="16"/>
	</g>
</g>
<g>
	<g>
		<path d="M456.053,40.099c-0.003,0-0.005,0-0.008,0h-64c-13.255,0-24,10.745-24,24v51.52c-14.821-4.172-30.74-0.035-41.656,10.824
			c-2.989,2.987-3.14,7.783-0.344,10.952l55.928,63.392l-57.744,86.608l-68.184-10.768v-4.528c0-4.418-3.582-8-8-8v-30.256
			c58.448-39.765,73.595-119.382,33.83-177.83c-39.765-58.448-119.382-73.595-177.83-33.83
			c-58.448,39.764-73.595,119.382-33.83,177.83c9.05,13.303,20.527,24.78,33.83,33.83v30.256c-4.418,0-8,3.582-8,8v4.528
			l-39.488,6.232c-23.38,3.596-40.609,23.761-40.512,47.416v141.824c0,4.418,3.582,8,8,8h304c4.418,0,8-3.582,8-8v-69.416
			l142.496-197.912c0.241-0.376,0.45-0.772,0.624-1.184c0.088-0.184,0.208-0.352,0.288-0.544c0.342-0.867,0.529-1.788,0.552-2.72
			c0-0.08,0.048-0.144,0.048-0.224v-136C480.053,50.844,469.308,40.099,456.053,40.099z M64.045,128.099
			C63.989,66.243,114.087,16.053,175.943,15.996c61.856-0.057,112.046,50.042,112.102,111.898
			c0.052,56.328-41.739,103.931-97.6,111.173l54.24-94.968h19.36v-16h-64c-3.032-0.001-5.805,1.712-7.16,4.424l-3.632,7.272
			l-5.208-52.496c-0.435-4.397-4.351-7.609-8.748-7.174c-2.737,0.271-5.144,1.929-6.372,4.39l-21.824,43.584H88.045v16h19.36
			l54.24,94.968C105.881,231.798,64.135,184.334,64.045,128.099z M112.045,352.099v-16h128v16H112.045z M229.893,368.099
			c-2.857,4.948-8.135,7.997-13.848,8h-80c-5.713-0.003-10.991-3.052-13.848-8H229.893z M120.045,320.099v-8h112v8H120.045z
			 M112.045,296.099v-16h128v3.368v12.632H112.045z M232.045,243.019v21.08h-112v-21.08
			C155.341,260.461,196.749,260.461,232.045,243.019z M125.829,144.099h26.216c3.032,0.001,5.805-1.712,7.16-4.424l11.632-23.272
			l5.208,52.496c0.435,4.397,4.351,7.609,8.748,7.174c2.737-0.271,5.144-1.929,6.372-4.39l13.824-27.584h21.272l-50.216,87.872
			L125.829,144.099z M321.549,395.419c-0.98,1.363-1.506,3.001-1.504,4.68v64h-288V330.275
			c-0.061-15.768,11.423-29.208,27.008-31.608l36.992-5.84v11.272c0,4.418,3.582,8,8,8v8c-4.418,0-8,3.582-8,8v32
			c0,4.418,3.582,8,8,8h1.136c3.637,14.085,16.317,23.945,30.864,24h80c14.547-0.055,27.227-9.915,30.864-24h1.136
			c4.418,0,8-3.582,8-8v-32c0-4.418-3.582-8-8-8v-8c4.418,0,8-3.582,8-8v-11.272l70.752,11.2c3.085,0.487,6.171-0.865,7.904-3.464
			l61.624-92.464h60.104L321.549,395.419z M464.045,192.099h-68.392l-51.92-58.848c8.837-4.722,19.565-4.149,27.848,1.488
			c3.667,2.465,8.637,1.492,11.103-2.175c0.888-1.32,1.362-2.875,1.361-4.465v-64c0-4.418,3.582-8,8-8v64h16v-64h8v64h16v-64h8v64
			h16v-64c4.418,0,8,3.582,8,8V192.099z"/>
	</g>
</g>
<g>
	<g>
		<rect x="312.045" y="64.099" width="32" height="16"/>
	</g>
</g>
<g>
	<g>
		<rect x="224.045" y="408.099" width="72" height="16"/>
	</g>
</g>
<g>
</g>
<g>
</g>
<g>
</g>
<g>
</g>
<g>
</g>
<g>
</g>
<g>
</g>
<g>
</g>
<g>
</g>
<g>
</g>
<g>
</g>
<g>
</g>
<g>
</g>
<g>
</g>
<g>
</g>
</svg>
