<?xml version="1.0" encoding="iso-8859-1"?>
<!-- Generator: Adobe Illustrator 19.0.0, SVG Export Plug-In . SVG Version: 6.00 Build 0)  -->
<svg version="1.1" id="Capa_1" xmlns="http://www.w3.org/2000/svg" xmlns:xlink="http://www.w3.org/1999/xlink" x="0px" y="0px"
	 viewBox="0 0 480.008 480.008" style="enable-background:new 0 0 480.008 480.008;" xml:space="preserve">
<g>
	<g>
		<path d="M477.004,465.756l-40-32c-1.419-1.135-3.183-1.753-5-1.752h-76.248l-26.664-32h110.912c22.08-0.026,39.974-17.92,40-40
			v-320c-0.026-22.08-17.92-39.974-40-40h-400c-22.08,0.026-39.974,17.92-40,40v320c0.026,22.08,17.92,39.974,40,40h110.912
			l-26.664,32H48.004c-1.817-0.001-3.581,0.617-5,1.752l-40,32c-3.451,2.759-4.011,7.794-1.252,11.244
			c1.519,1.899,3.82,3.005,6.252,3.004h464c4.418,0.002,8.002-3.578,8.004-7.996C480.009,469.575,478.904,467.275,477.004,465.756z
			 M40.004,384.004c-13.255,0-24-10.745-24-24v-320c0-13.255,10.745-24,24-24h400c13.255,0,24,10.745,24,24v320
			c0,13.255-10.745,24-24,24H40.004z M171.756,400.004h136.496l26.672,32h-189.84L171.756,400.004z M30.812,464.004l20-16h378.4
			l19.984,16H30.812z"/>
	</g>
</g>
<g>
	<g>
		<path d="M440.004,32.004h-400c-4.418,0-8,3.582-8,8v288c0,4.418,3.582,8,8,8h400c4.418,0,8-3.582,8-8v-288
			C448.004,35.586,444.422,32.004,440.004,32.004z M432.004,320.004h-384v-272h384V320.004z"/>
	</g>
</g>
<g>
	<g>
		<rect x="200.004" y="352.004" width="80" height="16"/>
	</g>
</g>
<g>
	<g>
		<path d="M240.004,224.004v-104c0-4.418-3.582-8-8-8h-72v-24c0-4.418-3.582-8-8-8h-72c-4.418,0-8,3.582-8,8v136h-8v16h88h96v-16
			H240.004z M144.004,224.004h-56v-128h56V224.004z M200.004,224.004h-16v-24h16V224.004z M224.004,136.004h-16v16h16v8h-16v16h16
			v48h-8v-32c0-4.418-3.582-8-8-8h-32c-4.418,0-8,3.582-8,8v32h-8v-48h16v-16h-16v-8h16v-16h-16v-8h64V136.004z"/>
	</g>
</g>
<g>
	<g>
		<rect x="96.004" y="104.004" width="16" height="16"/>
	</g>
</g>
<g>
	<g>
		<rect x="120.004" y="104.004" width="16" height="16"/>
	</g>
</g>
<g>
	<g>
		<rect x="184.004" y="136.004" width="16" height="16"/>
	</g>
</g>
<g>
	<g>
		<rect x="184.004" y="160.004" width="16" height="16"/>
	</g>
</g>
<g>
	<g>
		<rect x="96.004" y="128.004" width="16" height="16"/>
	</g>
</g>
<g>
	<g>
		<rect x="120.004" y="128.004" width="16" height="16"/>
	</g>
</g>
<g>
	<g>
		<rect x="96.004" y="152.004" width="16" height="16"/>
	</g>
</g>
<g>
	<g>
		<rect x="120.004" y="152.004" width="16" height="16"/>
	</g>
</g>
<g>
	<g>
		<rect x="96.004" y="176.004" width="16" height="16"/>
	</g>
</g>
<g>
	<g>
		<rect x="120.004" y="176.004" width="16" height="16"/>
	</g>
</g>
<g>
	<g>
		<rect x="96.004" y="200.004" width="16" height="16"/>
	</g>
</g>
<g>
	<g>
		<rect x="120.004" y="200.004" width="16" height="16"/>
	</g>
</g>
<g>
	<g>
		<rect x="288.004" y="88.004" width="112" height="16"/>
	</g>
</g>
<g>
	<g>
		<rect x="320.004" y="112.004" width="48" height="16"/>
	</g>
</g>
<g>
	<g>
		<path d="M208.004,256.004h-112c-4.418,0-8,3.582-8,8v32c0,4.418,3.582,8,8,8h112c4.418,0,8-3.582,8-8v-32
			C216.004,259.586,212.422,256.004,208.004,256.004z M200.004,288.004h-96v-16h96V288.004z"/>
	</g>
</g>
<g>
	<g>
		<rect x="328.004" y="152.004" width="88" height="16"/>
	</g>
</g>
<g>
	<g>
		<rect x="272.004" y="152.004" width="40" height="16"/>
	</g>
</g>
<g>
	<g>
		<rect x="376.004" y="184.004" width="40" height="16"/>
	</g>
</g>
<g>
	<g>
		<rect x="272.004" y="184.004" width="88" height="16"/>
	</g>
</g>
<g>
	<g>
		<rect x="320.004" y="216.004" width="96" height="16"/>
	</g>
</g>
<g>
	<g>
		<rect x="272.004" y="216.004" width="32" height="16"/>
	</g>
</g>
<g>
	<g>
		<rect x="376.004" y="248.004" width="40" height="16"/>
	</g>
</g>
<g>
	<g>
		<rect x="272.004" y="248.004" width="88" height="16"/>
	</g>
</g>
<g>
</g>
<g>
</g>
<g>
</g>
<g>
</g>
<g>
</g>
<g>
</g>
<g>
</g>
<g>
</g>
<g>
</g>
<g>
</g>
<g>
</g>
<g>
</g>
<g>
</g>
<g>
</g>
<g>
</g>
</svg>
