<?xml version="1.0" encoding="iso-8859-1"?>
<!-- Generator: Adobe Illustrator 19.0.0, SVG Export Plug-In . SVG Version: 6.00 Build 0)  -->
<svg version="1.1" id="Capa_1" xmlns="http://www.w3.org/2000/svg" xmlns:xlink="http://www.w3.org/1999/xlink" x="0px" y="0px"
	 viewBox="0 0 479.996 479.996" style="enable-background:new 0 0 479.996 479.996;" xml:space="preserve">
<g>
	<g>
		<path d="M470.932,329.572h-0.048c-0.965-0.467-1.976-0.834-3.016-1.096c-0.136,0-0.256-0.088-0.392-0.12
			c-1.141-0.272-2.308-0.417-3.48-0.432h-72v-104h24v16c-0.001,3.235,1.947,6.153,4.936,7.392c2.99,1.239,6.432,0.553,8.72-1.736
			l48-48c3.123-3.124,3.123-8.188,0-11.312l-48-48c-3.125-3.124-8.19-3.123-11.314,0.002c-1.499,1.5-2.342,3.534-2.342,5.654v16h-56
			v-64h32c4.418,0.002,8.001-3.579,8.003-7.997c0.001-1.819-0.618-3.583-1.755-5.003l-64-80c-2.994-3.451-8.218-3.821-11.669-0.827
			c-0.295,0.256-0.571,0.532-0.827,0.827l-64,80c-2.761,3.449-2.204,8.484,1.245,11.245c1.42,1.137,3.184,1.756,5.003,1.755h32v232
			h-23.112l-0.928-8.8c-0.328-3.119-2.449-5.759-5.424-6.752l-66.536-22.208v-29.672c0.696-0.544,1.416-1.032,2.104-1.6
			c27.175-22.663,43.669-55.631,45.512-90.968h0.384c4.418,0,8-3.582,8-8v-8c0-61.856-50.144-112-112-112s-112,50.144-112,112v16
			c0,4.418,3.582,8,8,8c0.328-0.031,0.654-0.081,0.976-0.152c3.754,32.444,19.837,62.203,44.92,83.12
			c0.68,0.568,1.408,1.056,2.104,1.6v29.672l-66.528,22.176c-2.975,0.993-5.096,3.633-5.424,6.752l-16,152
			c-0.459,4.394,2.73,8.329,7.125,8.789c0.275,0.029,0.551,0.043,0.827,0.043h456c8.837,0,16-7.163,16-16v-120
			C479.971,337.799,476.451,332.226,470.932,329.572z M87.996,463.924H16.884l14.528-138.04l56.584-18.856V463.924z M47.996,151.924
			c0-53.019,42.981-96,96-96s96,42.981,96,96h-24c-22.08-0.026-39.974-17.92-40-40c0.004-4.418-3.575-8.003-7.993-8.007
			c-0.586,0-1.17,0.063-1.743,0.191l-4.8,1.072c-40.375,8.919-78.811,25.043-113.464,47.6V151.924z M103.996,463.924V357.692
			l28.352-9.448l-20.072,73.6c-0.518,1.898-0.319,3.92,0.56,5.68l18.216,36.4H103.996z M103.996,340.82v-15.952l19.144,9.6
			L103.996,340.82z M128.516,423.083l15.48-56.76l15.48,56.76l-15.48,30.952L128.516,423.083z M183.996,463.924H156.94
			l18.208-36.424c0.879-1.76,1.078-3.782,0.56-5.68l-20.072-73.6l28.36,9.472V463.924z M183.996,340.82l-19.144-6.4l19.144-9.552
			V340.82z M183.996,306.98l-40,20l-40-20v-36.416c12.442,6.139,26.126,9.341,40,9.36c13.874-0.019,27.558-3.221,40-9.36V306.98z
			 M96.14,246.596c-23.881-19.965-38.307-49.02-39.776-80.112c31.962-20.886,67.325-36.03,104.496-44.752
			c4.79,26.705,28.005,46.154,55.136,46.192h15.616c-1.838,30.583-16.222,59.05-39.752,78.672
			C164.138,269.705,123.862,269.705,96.14,246.596z M199.996,463.924V307.028l56.584,18.856l1.144,10.872l13.384,127.168H199.996z
			 M423.996,175.924c4.418,0,8-3.582,8-8v-4.688l28.688,28.688l-28.688,28.688v-4.688c0-4.418-3.582-8-8-8h-40c-4.418,0-8,3.582-8,8
			v112h-16v-152H423.996z M280.644,79.924l47.352-59.2l47.352,59.2h-23.352c-4.418,0-8,3.582-8,8v240h-32v-240c0-4.418-3.582-8-8-8
			H280.644z M274.572,343.924l183.592,0.088l-22.808,39.912h-51.36v-8c0-4.418-3.582-8-8-8h-40c-4.418,0-8,3.582-8,8v8H278.78
			L274.572,343.924z M367.996,383.924v16h-24v-8v-8H367.996z M463.996,463.924h-176.8l-2.104-20l-4.632-44h47.536v8
			c0,4.418,3.582,8,8,8h40c4.418,0,8-3.582,8-8v-8h51.36c5.741-0.002,11.041-3.079,13.888-8.064l14.752-25.816V463.924z"/>
	</g>
</g>
<g>
</g>
<g>
</g>
<g>
</g>
<g>
</g>
<g>
</g>
<g>
</g>
<g>
</g>
<g>
</g>
<g>
</g>
<g>
</g>
<g>
</g>
<g>
</g>
<g>
</g>
<g>
</g>
<g>
</g>
</svg>
