<?xml version="1.0" encoding="iso-8859-1"?>
<!-- Generator: Adobe Illustrator 19.0.0, SVG Export Plug-In . SVG Version: 6.00 Build 0)  -->
<svg version="1.1" id="Capa_1" xmlns="http://www.w3.org/2000/svg" xmlns:xlink="http://www.w3.org/1999/xlink" x="0px" y="0px"
	 viewBox="0 0 480 480" style="enable-background:new 0 0 480 480;" xml:space="preserve">
<g>
	<g>
		<path d="M336,40c-22.091,0-40,17.909-40,40c0.026,22.08,17.92,39.974,40,40c22.091,0,40-17.909,40-40S358.091,40,336,40z M336,104
			c-13.255,0-24-10.745-24-24s10.745-24,24-24s24,10.745,24,24S349.255,104,336,104z"/>
	</g>
</g>
<g>
	<g>
		<path d="M408,56h-12.672l-0.4-0.984l8.96-8.96c3.123-3.124,3.123-8.188,0-11.312L381.256,12.12c-3.174-3.001-8.138-3.001-11.312,0
			l-8.96,8.96L360,20.672V8c0-4.418-3.582-8-8-8h-32c-4.418,0-8,3.582-8,8v12.672l-0.984,0.408l-8.96-8.96
			c-3.124-3.123-8.188-3.123-11.312,0L268.12,34.744c-3.123,3.124-3.123,8.188,0,11.312l8.96,8.96L276.672,56H264
			c-4.418,0-8,3.582-8,8v32c0,4.418,3.582,8,8,8h12.672l0.4,0.984l-8.96,8.952c-3.123,3.124-3.123,8.188,0,11.312l22.632,22.632
			c3.174,3.001,8.138,3.001,11.312,0l8.96-8.96l0.984,0.408V152c0,4.418,3.582,8,8,8h32c4.418,0,8-3.582,8-8v-12.672l0.984-0.408
			l8.96,8.96c3.124,3.123,8.188,3.123,11.312,0l22.632-22.632c3.123-3.124,3.123-8.188,0-11.312l-8.96-8.952l0.4-0.984H408
			c4.418,0,8-3.582,8-8V64C416,59.582,412.418,56,408,56z M400,88.008h-10.352c-3.539,0.002-6.656,2.328-7.664,5.72
			c-0.93,3.16-2.188,6.214-3.752,9.112c-1.689,3.114-1.129,6.968,1.376,9.472l7.304,7.296L375.6,130.912l-7.304-7.304
			c-2.504-2.505-6.358-3.065-9.472-1.376c-2.901,1.559-5.954,2.816-9.112,3.752c-3.389,1.011-5.711,4.128-5.712,7.664V144h-16
			v-10.352c-0.001-3.536-2.323-6.653-5.712-7.664c-3.158-0.936-6.211-2.193-9.112-3.752c-3.114-1.689-6.968-1.129-9.472,1.376
			l-7.304,7.304l-11.312-11.32l7.304-7.296c2.505-2.505,3.065-6.358,1.376-9.472c-1.565-2.898-2.822-5.952-3.752-9.112
			c-1.011-3.389-4.128-5.711-7.664-5.712H272V72h10.352c3.539-0.002,6.656-2.328,7.664-5.72c0.93-3.16,2.188-6.214,3.752-9.112
			c1.689-3.114,1.129-6.967-1.376-9.472l-7.304-7.304L296.4,29.088l7.304,7.304c2.505,2.505,6.358,3.065,9.472,1.376
			c2.901-1.559,5.954-2.817,9.112-3.752c3.389-1.011,5.711-4.128,5.712-7.664V16h16v10.352c0.001,3.536,2.323,6.653,5.712,7.664
			c3.158,0.935,6.211,2.193,9.112,3.752c3.114,1.689,6.968,1.129,9.472-1.376l7.304-7.304L386.912,40.4l-7.304,7.304
			c-2.505,2.505-3.065,6.358-1.376,9.472c1.565,2.898,2.822,5.952,3.752,9.112c1.008,3.392,4.125,5.718,7.664,5.72H400V88.008z"/>
	</g>
</g>
<g>
	<g>
		<path d="M479.96,471.2l-16-152c-0.328-3.119-2.449-5.759-5.424-6.752L392,290.24v-29.672c0.696-0.544,1.416-1.032,2.104-1.6
			C423.173,234.303,439.952,198.123,440,160c0-4.418-3.582-8-8-8h-24v16h15.712c-2.157,30.517-16.522,58.877-39.848,78.672
			c-27.722,23.11-67.998,23.11-95.72,0C265.15,226.63,250.889,198.401,248.4,168H264v-16h-24c-2.143,0.005-4.196,0.869-5.696,2.4
			c-1.502,1.522-2.331,3.582-2.304,5.72c0.343,38.027,17.07,74.059,45.896,98.864c0.68,0.568,1.408,1.056,2.104,1.6v29.656
			l-66.528,22.176c-2.975,0.993-5.096,3.633-5.424,6.752l-16,152c-0.46,4.394,2.73,8.329,7.125,8.789
			c0.275,0.029,0.551,0.043,0.827,0.043h272c4.418,0,8-3.582,8-8C480,471.733,479.987,471.466,479.96,471.2z M280,464h-71.112
			l14.528-138.04L280,307.104V464z M296,324.944l19.144,9.6L296,340.896V324.944z M296,464V357.768l28.352-9.448l-20.072,73.6
			c-0.518,1.898-0.319,3.92,0.56,5.68l18.216,36.4H296z M320.52,423.16L336,366.4l15.472,56.8L336,454.112L320.52,423.16z M376,464
			h-27.056l18.208-36.424c0.879-1.76,1.078-3.782,0.56-5.68l-20.072-73.6l28.36,9.472V464z M376,340.896l-19.144-6.4L376,324.944
			V340.896z M376,307.056l-40,20l-40-20V270.64c25.206,12.481,54.794,12.481,80,0V307.056z M392,464V307.104l56.584,18.856
			L463.112,464H392z"/>
	</g>
</g>
<g>
	<g>
		<path d="M80,168c-22.091,0-40,17.909-40,40c0.026,22.08,17.92,39.974,40,40c22.091,0,40-17.909,40-40S102.091,168,80,168z M80,232
			c-13.255,0-24-10.745-24-24s10.745-24,24-24s24,10.745,24,24S93.255,232,80,232z"/>
	</g>
</g>
<g>
	<g>
		<path d="M152,184h-12.672l-0.4-0.984l8.96-8.96c3.123-3.124,3.123-8.188,0-11.312l-22.632-22.624
			c-3.174-3.001-8.138-3.001-11.312,0l-8.96,8.96L104,148.672V136c0-4.418-3.582-8-8-8H64c-4.418,0-8,3.582-8,8v12.672l-0.984,0.408
			l-8.96-8.96c-3.124-3.123-8.188-3.123-11.312,0L12.12,162.744c-3.123,3.124-3.123,8.188,0,11.312l8.96,8.96L20.672,184H8
			c-4.418,0-8,3.582-8,8v32c0,4.418,3.582,8,8,8h12.672l0.4,0.984l-8.96,8.952c-3.123,3.124-3.123,8.188,0,11.312l22.632,22.632
			c3.174,3.001,8.138,3.001,11.312,0l8.96-8.96L56,267.328V280c0,4.418,3.582,8,8,8h32c4.418,0,8-3.582,8-8v-12.672l0.984-0.408
			l8.96,8.96c3.124,3.123,8.188,3.123,11.312,0l22.632-22.632c3.123-3.124,3.123-8.188,0-11.312l-8.96-8.952l0.4-0.984H152
			c4.418,0,8-3.582,8-8v-32C160,187.582,156.418,184,152,184z M144,216.008h-10.352c-3.539,0.002-6.656,2.328-7.664,5.72
			c-0.93,3.16-2.188,6.214-3.752,9.112c-1.689,3.114-1.129,6.968,1.376,9.472l7.304,7.296L119.6,258.912l-7.304-7.304
			c-2.505-2.505-6.358-3.065-9.472-1.376c-2.901,1.559-5.954,2.816-9.112,3.752c-3.389,1.011-5.711,4.128-5.712,7.664V272H72
			v-10.352c-0.001-3.536-2.323-6.653-5.712-7.664c-3.158-0.936-6.211-2.193-9.112-3.752c-3.114-1.689-6.968-1.129-9.472,1.376
			l-7.304,7.304l-11.312-11.32l7.304-7.296c2.505-2.505,3.065-6.358,1.376-9.472c-1.565-2.898-2.822-5.952-3.752-9.112
			c-1.011-3.389-4.128-5.711-7.664-5.712H16v-16h10.352c3.539-0.002,6.656-2.328,7.664-5.72c0.93-3.16,2.188-6.214,3.752-9.112
			c1.689-3.114,1.129-6.967-1.376-9.472l-7.304-7.304L40.4,157.088l7.304,7.304c2.505,2.505,6.358,3.065,9.472,1.376
			c2.901-1.559,5.954-2.817,9.112-3.752c3.389-1.011,5.711-4.128,5.712-7.664V144h16v10.352c0.001,3.536,2.323,6.653,5.712,7.664
			c3.158,0.935,6.211,2.193,9.112,3.752c3.114,1.689,6.968,1.129,9.472-1.376l7.304-7.304l11.32,11.312l-7.304,7.304
			c-2.505,2.504-3.065,6.358-1.376,9.472c1.564,2.898,2.822,5.952,3.752,9.112c1.008,3.392,4.125,5.718,7.664,5.72H144V216.008z"/>
	</g>
</g>
<g>
	<g>
		<path d="M259.496,251.2C239.612,264.786,216.082,272.037,192,272c-10.135,0.003-20.231-1.271-30.048-3.792l-4,15.504
			c11.125,2.851,22.564,4.292,34.048,4.288c27.293,0.051,53.962-8.157,76.504-23.544L259.496,251.2z"/>
	</g>
</g>
<g>
	<g>
		<path d="M65.81,101.216c-1.101,2.729-2.113,5.493-3.034,8.288l15.2,5c20.779-63.007,88.7-97.24,151.707-76.461
			c2.459,0.811,4.891,1.701,7.293,2.669l6.008-14.832C173.255-2.242,93.932,31.487,65.81,101.216z"/>
	</g>
</g>
<g>
	<g>
		<path d="M92.536,297.232L83.44,310.4c4.12,2.84,8.448,5.6,12.848,8.104l8-13.856C100.288,302.32,96.288,299.848,92.536,297.232z"
			/>
	</g>
</g>
<g>
	<g>
		<path d="M176.704,327.344l-1.376,15.936c5.528,0.48,11.144,0.72,16.672,0.72v-16C186.92,328,181.776,327.784,176.704,327.344z"/>
	</g>
</g>
<g>
	<g>
		<path d="M146.6,322.088l-4.128,15.456c5.344,1.432,10.832,2.64,16.312,3.592l2.752-15.768
			C156.52,324.496,151.496,323.392,146.6,322.088z"/>
	</g>
</g>
<g>
	<g>
		<path d="M117.864,311.688l-6.76,14.48c5,2.336,10.192,4.48,15.432,6.4L132,317.52C127.2,315.784,122.448,313.816,117.864,311.688z
			"/>
	</g>
</g>
<g>
	<g>
		<path d="M130.544,82.584c-4.295,3.874-8.266,8.094-11.872,12.616l12.528,9.952c3.047-3.826,6.405-7.393,10.04-10.664
			L130.544,82.584z"/>
	</g>
</g>
<g>
	<g>
		<path d="M210.568,56.528l-1.6,15.92c4.412,0.446,8.785,1.224,13.08,2.328l4-15.496C220.964,57.979,215.789,57.059,210.568,56.528z
			"/>
	</g>
</g>
<g>
	<g>
		<path d="M193.28,56.208c-5.77,0.365-11.499,1.21-17.128,2.528l3.656,15.576c4.761-1.116,9.608-1.833,14.488-2.144L193.28,56.208z"
			/>
	</g>
</g>
<g>
	<g>
		<path d="M159.688,64.104c-5.33,2.244-10.463,4.931-15.344,8.032l8.568,13.512c4.126-2.621,8.464-4.893,12.968-6.792
			L159.688,64.104z"/>
	</g>
</g>
<g>
	<g>
		<path d="M109.032,109.544c-2.803,5.059-5.182,10.341-7.112,15.792l15.088,5.328c1.631-4.61,3.644-9.076,6.016-13.352
			L109.032,109.544z"/>
	</g>
</g>
<g>
</g>
<g>
</g>
<g>
</g>
<g>
</g>
<g>
</g>
<g>
</g>
<g>
</g>
<g>
</g>
<g>
</g>
<g>
</g>
<g>
</g>
<g>
</g>
<g>
</g>
<g>
</g>
<g>
</g>
</svg>
