<?xml version="1.0" encoding="iso-8859-1"?>
<!-- Generator: Adobe Illustrator 19.0.0, SVG Export Plug-In . SVG Version: 6.00 Build 0)  -->
<svg version="1.1" id="Capa_1" xmlns="http://www.w3.org/2000/svg" xmlns:xlink="http://www.w3.org/1999/xlink" x="0px" y="0px"
	 viewBox="0 0 480.002 480.002" style="enable-background:new 0 0 480.002 480.002;" xml:space="preserve">
<g>
	<g>
		<path d="M479.377,236.905c-0.664-1.576-68.048-156.904-239.376-156.904S1.289,235.329,0.625,236.897
			c-0.833,1.983-0.833,4.217,0,6.2c0.664,1.576,68.048,156.904,239.376,156.904s238.712-155.328,239.376-156.896
			C480.21,241.122,480.21,238.888,479.377,236.905z M16.801,240.001c25.593-51.248,66.675-93.136,117.416-119.72
			c-66.119,58.036-72.673,158.683-14.637,224.803c4.557,5.191,9.446,10.081,14.637,14.637
			C83.476,333.137,42.394,291.249,16.801,240.001z M240.001,384.001c-79.491-0.093-143.907-64.509-144-144
			c0-79.529,64.471-144,144-144s144,64.471,144,144S319.53,384.001,240.001,384.001z M345.785,359.721
			c66.12-58.035,72.673-158.683,14.638-224.802c-4.557-5.191-9.446-10.081-14.638-14.638
			c50.741,26.584,91.823,68.472,117.416,119.72C437.608,291.249,396.526,333.137,345.785,359.721z"/>
	</g>
</g>
<g>
	<g>
		<path d="M350.937,292.001l-54.936-94.168v-69.832c0-4.418-3.582-8-8-8c-1.731,0-3.415,0.561-4.8,1.6l-32,24
			c-3.535,2.651-4.251,7.666-1.6,11.2c0.744,0.992,1.708,1.797,2.816,2.352l27.584,13.792v24.656l-56.8,85.176l-41.136-48
			c-3.089-3.353-8.313-3.568-11.666-0.478c-0.166,0.153-0.325,0.312-0.478,0.478l-48,56c-2.885,3.346-2.511,8.398,0.835,11.283
			c1.458,1.257,3.32,1.946,5.245,1.941h216c2.861,0.003,5.506-1.522,6.936-4C352.366,297.526,352.366,294.476,350.937,292.001z
			 M145.393,288.001l30.608-35.712l30.608,35.712H145.393z M271.161,150.633l8.84-6.632v11.056L271.161,150.633z M238.945,288.001
			l48.6-72.896l42.528,72.896H238.945z"/>
	</g>
</g>
<g>
	<g>
		<rect x="208.001" y="128.001" width="16" height="16"/>
	</g>
</g>
<g>
	<g>
		<rect x="224.001" y="144.001" width="16" height="16"/>
	</g>
</g>
<g>
	<g>
		<rect x="208.001" y="160.001" width="16" height="16"/>
	</g>
</g>
<g>
	<g>
		<rect x="192.001" y="144.001" width="16" height="16"/>
	</g>
</g>
<g>
	<g>
		<rect x="328.001" y="152.001" width="16" height="16"/>
	</g>
</g>
<g>
	<g>
		<rect x="320.001" y="192.001" width="16" height="16"/>
	</g>
</g>
<g>
	<g>
		<path d="M8.001,0.001c-4.418,0-8,3.582-8,8v88h16v-80h80v-16H8.001z"/>
	</g>
</g>
<g>
	<g>
		<path d="M472.001,0.001h-88v16h80v80h16v-88C480.001,3.583,476.419,0.001,472.001,0.001z"/>
	</g>
</g>
<g>
	<g>
		<path d="M16.001,464.001v-80h-16v88c0,4.418,3.582,8,8,8h88v-16H16.001z"/>
	</g>
</g>
<g>
	<g>
		<path d="M464.001,384.001v80h-80v16h88c4.418,0,8-3.582,8-8v-88H464.001z"/>
	</g>
</g>
<g>
</g>
<g>
</g>
<g>
</g>
<g>
</g>
<g>
</g>
<g>
</g>
<g>
</g>
<g>
</g>
<g>
</g>
<g>
</g>
<g>
</g>
<g>
</g>
<g>
</g>
<g>
</g>
<g>
</g>
</svg>
