<?xml version="1.0" encoding="iso-8859-1"?>
<!-- Generator: Adobe Illustrator 19.0.0, SVG Export Plug-In . SVG Version: 6.00 Build 0)  -->
<svg version="1.1" id="Capa_1" xmlns="http://www.w3.org/2000/svg" xmlns:xlink="http://www.w3.org/1999/xlink" x="0px" y="0px"
	 viewBox="0 0 480.004 480.004" style="enable-background:new 0 0 480.004 480.004;" xml:space="preserve">
<g>
	<g>
		<path d="M386.904,184.37c12.481-9.82,20.16-24.514,21.096-40.368c0-52.896-30.456-64-56-64s-56,11.104-56,64
			c0.929,15.862,8.609,30.566,21.096,40.392c-21.206,2.613-37.127,20.641-37.096,42.008v53.6c0,4.418,3.582,8,8,8h128
			c4.418,0,8-3.582,8-8v-53.6C424.043,205.026,408.119,186.984,386.904,184.37z M312.416,135.538
			C314.584,108.722,327.2,96.002,352,96.002c22.704,0,35.2,10.736,38.776,33.136l-26.656-16c-3.789-2.273-8.703-1.044-10.976,2.745
			c-0.3,0.5-0.544,1.03-0.728,1.583C348.368,129.61,326.512,134.202,312.416,135.538z M313.112,151.586v-0.016
			c13.696-1.128,38.4-5.272,49.92-20.44l28.592,17.16c-3.208,19.608-27.344,35.712-39.624,35.712
			C334.157,180.963,319.314,168.59,313.112,151.586z M358.608,230.05L352,236.69l-6.608-6.616L352,213.522L358.608,230.05z
			 M408,272.002H296v-45.6c-0.004-8.829,4.414-17.074,11.768-21.96c4.33-2.896,9.423-4.442,14.632-4.44h17.76l-11.616,29.032
			c-1.185,2.971-0.487,6.363,1.776,8.624l16,16c3.124,3.123,8.188,3.123,11.312,0l16-16c2.263-2.261,2.961-5.653,1.776-8.624
			l-11.592-29.032H381.6c14.58,0,26.4,11.82,26.4,26.4V272.002z"/>
	</g>
</g>
<g>
	<g>
		<path d="M477,465.754l-40-32c-1.419-1.135-3.183-1.753-5-1.752h-76.248l-26.664-32H440c22.08-0.026,39.974-17.92,40-40v-320
			c-0.026-22.08-17.92-39.974-40-40H40c-22.08,0.026-39.974,17.92-40,40h16c0-13.255,10.745-24,24-24h400c13.255,0,24,10.745,24,24
			v320c0,13.255-10.745,24-24,24H224v16h84.248l26.672,32H224v16h205.192l20,16H224v16h248c4.418,0.002,8.002-3.578,8.004-7.996
			C480.005,469.573,478.9,467.273,477,465.754z"/>
	</g>
</g>
<g>
	<g>
		<path d="M440,32.002H168v16h264v272H224v16h216c4.418,0,8-3.582,8-8v-288C448,35.584,444.418,32.002,440,32.002z"/>
	</g>
</g>
<g>
	<g>
		<path d="M234.904,184.37c12.481-9.82,20.16-24.514,21.096-40.368c0-52.896-30.456-64-56-64
			c-10.148-0.269-20.201,2.011-29.24,6.632C134.761,36.468,64.911,24.984,14.745,60.984c-4.332,3.109-8.437,6.524-12.281,10.218
			l11.08,11.544c38.262-36.703,99.033-35.439,135.735,2.823c17.141,17.869,26.715,41.671,26.721,66.433h-24
			c-22.08-0.026-39.974-17.92-40-40c0.004-4.418-3.575-8.003-7.993-8.007c-0.586,0-1.171,0.063-1.743,0.191l-4.8,1.072
			c-32.67,7.261-64.114,19.22-93.352,35.504l7.784,13.984c26.663-14.855,55.258-25.94,84.968-32.936
			c4.79,26.705,28.005,46.154,55.136,46.192h15.616c-1.837,30.585-16.224,59.053-39.76,78.672
			c-27.716,23.111-67.988,23.111-95.704,0c-6.857-5.71-13-12.226-18.296-19.408l-12.88,9.536c6.059,8.211,13.083,15.665,20.92,22.2
			c0.68,0.568,1.408,1.056,2.104,1.6v29.64l-18.528,6.176l5.064,15.2L24,307.106v156.896H8v16h208
			c4.418-0.004,7.996-3.59,7.992-8.008c0-0.265-0.014-0.529-0.04-0.792l-16-152c-0.316-3.131-2.439-5.786-5.424-6.784L136,290.242
			V260.57c0.696-0.544,1.416-1.032,2.104-1.6c18.567-15.484,32.337-35.939,39.696-58.968h10.4l-11.616,29.032
			c-1.185,2.971-0.487,6.363,1.776,8.624l16,16c3.124,3.123,8.188,3.123,11.312,0l16-16c2.263-2.261,2.961-5.653,1.776-8.624
			l-11.632-29.032H229.6c14.58,0,26.4,11.82,26.4,26.4v45.6H152v16h112c4.418,0,8-3.582,8-8v-53.6
			C272.043,205.026,256.119,186.984,234.904,184.37z M40,324.946l19.144,9.6L40,340.898V324.946z M40,464.002v-106.24l28.352-9.448
			l-20.072,73.6c-0.518,1.898-0.319,3.92,0.56,5.68l18.216,36.408H40z M64.52,423.162L80,366.402l15.48,56.76L80,454.114
			L64.52,423.162z M120,464.002H92.944l18.208-36.424c0.879-1.76,1.078-3.782,0.56-5.68l-20.072-73.6L120,357.77V464.002z
			 M120,340.898l-19.144-6.4L120,324.946V340.898z M120,307.05l-40,20l-40-20v-36.408c12.441,6.14,26.126,9.342,40,9.36
			c13.875-0.021,27.559-3.226,40-9.368V307.05z M192.584,325.962l14.536,138.04H136V307.106L192.584,325.962z M200,96.002
			c22.704,0,35.2,10.736,38.776,33.136l-26.656-16c-3.789-2.273-8.703-1.044-10.976,2.745c-0.3,0.5-0.544,1.03-0.728,1.583
			c-2.135,4.883-6.077,8.751-11,10.792c-2.119-9.748-5.542-19.166-10.176-28C185.727,97.221,192.841,95.762,200,96.002z M200,236.69
			l-6.608-6.616L200,213.538l6.608,16.528L200,236.69z M200,184.002c-6.181-0.655-12.095-2.871-17.184-6.44
			c0.416-3.2,0.624-6.352,0.8-9.56H184c4.418,0,8-3.582,8-8v-8c0-2.464-0.208-4.872-0.368-7.296
			c7.568-2.689,14.268-7.375,19.392-13.56l28.6,17.16C236.416,167.898,212.28,184.002,200,184.002z"/>
	</g>
</g>
<g>
</g>
<g>
</g>
<g>
</g>
<g>
</g>
<g>
</g>
<g>
</g>
<g>
</g>
<g>
</g>
<g>
</g>
<g>
</g>
<g>
</g>
<g>
</g>
<g>
</g>
<g>
</g>
<g>
</g>
</svg>
