<?xml version="1.0" encoding="iso-8859-1"?>
<!-- Generator: Adobe Illustrator 19.0.0, SVG Export Plug-In . SVG Version: 6.00 Build 0)  -->
<svg version="1.1" id="Capa_1" xmlns="http://www.w3.org/2000/svg" xmlns:xlink="http://www.w3.org/1999/xlink" x="0px" y="0px"
	 viewBox="0 0 480 480" style="enable-background:new 0 0 480 480;" xml:space="preserve">
<g>
	<g>
		<path d="M437.816,186.504L302.472,43.2C296.643,17.839,274.022-0.1,248,0c-3.761,0.028-6.979,2.707-7.688,6.4l-12.576-5.68
			c-2.824-1.273-6.128-0.813-8.496,1.184c-124,105.6-143.76,251.752-138.4,356.056c-4.027,24.597-5.635,49.529-4.8,74.44
			C55.641,434.389,40.064,451.505,40,472c0,4.418,3.582,8,8,8h368c4.418,0,8-3.582,8-8c-0.065-18.242-12.464-34.129-30.144-38.624
			c8.947-62.308-12.576-125.121-57.856-168.848l63.072,7.424c2.038,0.245,4.092-0.312,5.728-1.552l32-24
			c2.014-1.511,3.2-3.882,3.2-6.4v-48C440.001,189.957,439.22,187.99,437.816,186.504z M225.776,17.4v0.008L240,23.864V32
			c0.02,12.276,4.073,24.205,11.536,33.952c-4,2.84-8,5.84-11.92,8.92c-0.544,0.424-1.08,0.872-1.6,1.304
			c-3.733,2.944-7.4,5.987-11,9.128l-0.304,0.264c-57.464,49.928-103.752,124.456-129.28,203.616
			C103.904,200.272,134.696,97.088,225.776,17.4z M384.528,448.08h0.272c9.857,0.317,18.517,6.632,21.832,15.92H57.368
			c3.401-9.583,12.463-15.99,22.632-16h303.64C383.96,448,384.312,448.064,384.528,448.08z M424,236l-26.24,19.68l-86.4-10.168
			c-20.187-2.353-34.645-20.626-32.292-40.813c0.062-0.531,0.135-1.06,0.22-1.587l-15.8-2.528
			c-4.302,26.692,12.285,52.313,38.4,59.312h0.04c1.6,0.421,3.216,0.771,4.848,1.048c0.296,0.056,0.592,0.144,0.896,0.192
			l3.944,3.136C362.11,304.309,387.38,368.263,377.888,432H92c-0.84-24.073,0.688-48.17,4.56-71.944
			c0-0.152,0.128-0.272,0.152-0.424c17.6-108.136,78.792-215.312,154.88-273.808l2.144-1.6c4.712-3.552,9.456-6.96,14.272-10.128
			c3.692-2.427,4.717-7.388,2.289-11.08c-0.363-0.552-0.794-1.058-1.281-1.504C260.684,53.97,255.951,43.24,256,32V16.8
			c16.325,3.285,28.872,16.395,31.44,32.848c0.508,2.42,2.114,4.467,4.344,5.536L424,195.2V236z"/>
	</g>
</g>
<g>
	<g>
		<rect x="388.688" y="215.997" transform="matrix(0.7071 -0.7071 0.7071 0.7071 -41.2324 348.4502)" width="22.624" height="16"/>
	</g>
</g>
<g>
	<g>
		<path d="M312,112h-16c-4.418,0-8,3.582-8,8c0.026,22.08,17.92,39.974,40,40h16c4.418,0,8-3.582,8-8
			C351.974,129.92,334.081,112.027,312,112z M328,144c-10.169-0.01-19.231-6.417-22.632-16H312c10.169,0.01,19.231,6.417,22.632,16
			H328z"/>
	</g>
</g>
<g>
	<g>
		<rect x="376" y="0" width="16" height="16"/>
	</g>
</g>
<g>
	<g>
		<rect x="392" y="16" width="16" height="16"/>
	</g>
</g>
<g>
	<g>
		<rect x="376" y="32" width="16" height="16"/>
	</g>
</g>
<g>
	<g>
		<rect x="360" y="16" width="16" height="16"/>
	</g>
</g>
<g>
	<g>
		<polygon points="464,96 464,80 448,80 448,96 432,96 432,112 448,112 448,128 464,128 464,112 480,112 480,96 		"/>
	</g>
</g>
<g>
	<g>
		<rect x="392" y="80" width="16" height="16"/>
	</g>
</g>
<g>
	<g>
		<rect x="16" y="0" width="16" height="16"/>
	</g>
</g>
<g>
	<g>
		<rect x="32" y="16" width="16" height="16"/>
	</g>
</g>
<g>
	<g>
		<rect x="16" y="32" width="16" height="16"/>
	</g>
</g>
<g>
	<g>
		<rect x="0" y="16" width="16" height="16"/>
	</g>
</g>
<g>
	<g>
		<polygon points="40,208 40,192 24,192 24,208 8,208 8,224 24,224 24,240 40,240 40,224 56,224 56,208 		"/>
	</g>
</g>
<g>
	<g>
		<rect x="32" y="80" width="16" height="16"/>
	</g>
</g>
<g>
	<g>
		<rect x="120" y="32" width="16" height="16"/>
	</g>
</g>
<g>
</g>
<g>
</g>
<g>
</g>
<g>
</g>
<g>
</g>
<g>
</g>
<g>
</g>
<g>
</g>
<g>
</g>
<g>
</g>
<g>
</g>
<g>
</g>
<g>
</g>
<g>
</g>
<g>
</g>
</svg>
