<?xml version="1.0" encoding="iso-8859-1"?>
<!-- Generator: Adobe Illustrator 19.0.0, SVG Export Plug-In . SVG Version: 6.00 Build 0)  -->
<svg version="1.1" id="Capa_1" xmlns="http://www.w3.org/2000/svg" xmlns:xlink="http://www.w3.org/1999/xlink" x="0px" y="0px"
	 viewBox="0 0 480 480" style="enable-background:new 0 0 480 480;" xml:space="preserve">
<g>
	<g>
		<path d="M480,360V120c-0.026-22.08-17.92-39.974-40-40h-24V56c0.005-4.418-3.573-8.004-7.992-8.008
			c-1.217-0.001-2.418,0.275-3.512,0.808L340.544,80H176V24c0-13.255-10.745-24-24-24H24C10.745,0,0,10.745,0,24v80
			c0.031,2.448,0.441,4.877,1.216,7.2C0.467,114.075,0.059,117.029,0,120v240c0.026,22.08,17.92,39.974,40,40h131.056l-16,32H8
			c-4.418,0-8,3.582-8,8c0,40,42.152,40,56,40h368c13.848,0,56,0,56-40c0-4.418-3.582-8-8-8H324.944l-16-32H440
			C462.08,399.974,479.974,382.08,480,360z M168,160c4.418,0,8-3.582,8-8V96h131.736l-108.32,52.8
			c-8.189,3.149-14.014,10.507-15.2,19.2H120c-30.928,0.115-55.907,25.279-55.792,56.207c0.105,28.317,21.333,52.1,49.456,55.409
			L131.752,352H48V128h77.192L163,158.248C164.419,159.383,166.183,160.001,168,160z M161.752,280l20,80h-31.504l-20-80H161.752z
			 M128,264v-80h56v80H128z M178.24,280h6.008c1.186,8.693,7.011,16.051,15.2,19.2L307.736,352H196.248L178.24,280z M112,184.8v78.4
			c-18.611-3.827-31.976-20.199-32-39.2C80.024,204.999,93.389,188.627,112,184.8z M16,24c0-4.418,3.582-8,8-8h128
			c4.418,0,8,3.582,8,8v111.352l-27-21.6c-1.419-1.135-3.183-1.753-5-1.752H24c-0.93-0.022-1.848-0.209-2.712-0.552
			c-0.84-0.331-1.62-0.796-2.312-1.376C17.058,108.65,15.948,106.387,16,104V24z M463.032,448c-2.792,9.848-12.448,16-39.032,16H56
			c-26.584,0-36.24-6.152-39.032-16H463.032z M172.944,432l16-32h102.112l16,32H172.944z M40,384c-13.255,0-24-10.745-24-24V126.608
			c0.568,0.2,1.168,0.304,1.744,0.464c0.576,0.16,1.192,0.368,1.816,0.48c1.463,0.289,2.949,0.439,4.44,0.448h8v232
			c0,4.418,3.582,8,8,8h95.76l0.488,1.944c0.891,3.557,4.086,6.052,7.752,6.056h48c2.464-0.001,4.789-1.138,6.304-3.08
			c1.036-1.426,1.56-3.159,1.488-4.92h140.752l32.8,16H40z M400,88v291.2l-193.912-94.584c-0.26-0.126-0.527-0.239-0.8-0.336
			c-3.174-1.143-5.289-4.155-5.288-7.528V171.248c-0.001-3.373,2.115-6.384,5.288-7.528c0.273-0.097,0.54-0.21,0.8-0.336L400,68.8
			V88z M416,128h16v224h-16V128z M416,368h24c4.418,0,8-3.582,8-8V120c0-4.418-3.582-8-8-8h-24V96h24c13.255,0,24,10.745,24,24v240
			c0,13.255-10.745,24-24,24h-24V368z"/>
	</g>
</g>
<g>
	<g>
		<path d="M296,136c-48.601,0-88,39.399-88,88c0.053,48.579,39.421,87.947,88,88c48.601,0,88-39.399,88-88
			C384,175.399,344.601,136,296,136z M296,296c-39.764,0-72-32.236-72-72c0.044-39.746,32.254-71.956,72-72
			c39.765,0,72,32.235,72,72C368,263.764,335.765,296,296,296z"/>
	</g>
</g>
<g>
	<g>
		<path d="M342.072,218.8c-0.268-0.313-0.559-0.604-0.872-0.872l-56-48c-3.358-2.872-8.408-2.478-11.279,0.879
			c-1.238,1.447-1.919,3.288-1.921,5.193v96c-0.002,3.125,1.817,5.966,4.656,7.272c2.837,1.304,6.173,0.838,8.544-1.192l56-48
			C344.556,227.206,344.946,222.156,342.072,218.8z M288,254.608v-61.216L323.712,224L288,254.608z"/>
	</g>
</g>
<g>
	<g>
		<rect x="32" y="32" width="72" height="16"/>
	</g>
</g>
<g>
	<g>
		<rect x="112" y="32" width="32" height="16"/>
	</g>
</g>
<g>
	<g>
		<rect x="32" y="64" width="112" height="16"/>
	</g>
</g>
<g>
</g>
<g>
</g>
<g>
</g>
<g>
</g>
<g>
</g>
<g>
</g>
<g>
</g>
<g>
</g>
<g>
</g>
<g>
</g>
<g>
</g>
<g>
</g>
<g>
</g>
<g>
</g>
<g>
</g>
</svg>
