<?xml version="1.0" encoding="iso-8859-1"?>
<!-- Generator: Adobe Illustrator 19.0.0, SVG Export Plug-In . SVG Version: 6.00 Build 0)  -->
<svg version="1.1" id="Capa_1" xmlns="http://www.w3.org/2000/svg" xmlns:xlink="http://www.w3.org/1999/xlink" x="0px" y="0px"
	 viewBox="0 0 480 480" style="enable-background:new 0 0 480 480;" xml:space="preserve">
<g>
	<g>
		<path d="M352,296h-12.672l-0.408-0.984l8.96-8.952c3.123-3.124,3.123-8.188,0-11.312l-22.624-22.632
			c-3.124-3.123-8.188-3.123-11.312,0l-8.96,8.96L304,260.672V248c0-4.418-3.582-8-8-8h-32c-4.418,0-8,3.582-8,8v12.672
			l-0.984,0.408l-8.96-8.96c-3.174-3.001-8.138-3.001-11.312,0l-22.624,22.632c-1.326,1.373-2.118,3.175-2.232,5.08
			c-6.536-38.136-9.844-76.756-9.888-115.448v-42.496l15.16-30.312h-0.072c0.584-1.102,0.897-2.328,0.912-3.576V8
			c0-4.418-3.582-8-8-8h-32c-4.418,0-8,3.582-8,8v24h-16V8c0-4.418-3.582-8-8-8h-32c-4.418,0-8,3.582-8,8v24H88V8
			c0-4.418-3.582-8-8-8H48c-4.418,0-8,3.582-8,8v80c0.022,1.237,0.338,2.452,0.92,3.544h-0.072L56,121.888v42.496
			c-0.067,69.458-10.585,138.511-31.2,204.84c-12.563,3.865-19.615,17.183-15.75,29.746c0.756,2.459,1.907,4.779,3.406,6.87
			l-0.256,0.712c-1.088,3.088-2.176,6.168-3.36,9.208l-8.208,21.112l-0.08,0.2c-0.308,0.833-0.473,1.712-0.488,2.6
			c0,0.104-0.064,0.192-0.064,0.296v32c-0.018,4.418,3.55,8.014,7.968,8.032c0.011,0,0.021,0,0.032,0h240c4.418,0,8-3.582,8-8v-32
			c0-0.104-0.056-0.192-0.064-0.296c-0.015-0.888-0.18-1.767-0.488-2.6l-0.08-0.2l-8.168-21.136
			c-1.184-3.048-2.28-6.128-3.368-9.208l-0.256-0.712c4.02-5.533,5.407-12.554,3.792-19.2l7.68-7.68l0.984,0.408V392
			c0,4.418,3.582,8,8,8h32c4.418,0,8-3.582,8-8v-12.672l0.984-0.408l8.96,8.96c3.124,3.123,8.188,3.123,11.312,0l22.624-22.624
			c3.123-3.124,3.123-8.188,0-11.312l-8.96-8.96l0.376-0.984H352c4.418,0,8-3.582,8-8v-32C360,299.582,356.418,296,352,296z
			 M212.12,286.064v0.032l8.96,8.952L220.672,296h-7.952c-0.8-4.072-1.424-8.16-2.144-12.24
			C210.952,284.613,211.474,285.392,212.12,286.064z M56,16h16v24c0,4.418,3.582,8,8,8h32c4.418,0,8-3.582,8-8V16h16v24
			c0,4.418,3.582,8,8,8h32c4.418,0,8-3.582,8-8V16h16v64H56V16z M68.944,112l-8-16h134.112l-8,16H68.944z M184,128v16H72v-16H184z
			 M72,164.384V160h112v4.384c0.041,68.972,10.156,137.568,30.024,203.616H41.976C61.844,301.952,71.959,233.356,72,164.384z
			 M31.664,384.064l0.008,0.04h0.072L32.352,384h191.304l0.608,0.072h0.112c4.243,0.2,7.59,3.68,7.624,7.928
			c-0.035,2.706-1.458,5.205-3.768,6.616c-1.232,0.892-2.711,1.376-4.232,1.384H32c-1.521-0.008-3-0.492-4.232-1.384
			c-2.31-1.411-3.733-3.91-3.768-6.616C24.03,387.734,27.402,384.243,31.664,384.064z M23.76,421.6c0.8-2.096,1.6-4.2,2.336-6.32
			c0.112,0,0.24,0,0.352,0.048c1.818,0.441,3.681,0.667,5.552,0.672h192c1.872-0.018,3.736-0.257,5.552-0.712
			c0.12,0,0.24,0,0.352-0.048c0.76,2.12,1.52,4.224,2.336,6.32l4.056,10.4h-216.6L23.76,421.6z M240,464H16v-16h224V464z
			 M344,328.008h-10.352c-3.536,0.001-6.653,2.323-7.664,5.712c-0.934,3.158-2.191,6.212-3.752,9.112
			c-1.693,3.116-1.133,6.974,1.376,9.48l7.304,7.304L319.6,370.912l-7.304-7.304c-2.506-2.509-6.364-3.069-9.48-1.376
			c-2.9,1.561-5.954,2.818-9.112,3.752c-3.389,1.011-5.711,4.128-5.712,7.664V384H272v-10.352c-0.001-3.536-2.323-6.653-5.712-7.664
			c-3.158-0.934-6.212-2.191-9.112-3.752c-3.116-1.693-6.974-1.133-9.48,1.376l-7.304,7.304L229.096,359.6l7.296-7.304
			c2.509-2.506,3.069-6.364,1.376-9.48c-1.561-2.9-2.818-5.954-3.752-9.112c-1.014-3.385-4.13-5.704-7.664-5.704h-6.488
			c-1.296-5.333-2.531-10.667-3.704-16h10.184c3.536-0.001,6.653-2.323,7.664-5.712c0.934-3.158,2.191-6.212,3.752-9.112
			c1.691-3.112,1.134-6.966-1.368-9.472v0.032l-7.304-7.296l11.312-11.32l7.304,7.304c2.506,2.509,6.364,3.069,9.48,1.376
			c2.9-1.561,5.954-2.818,9.112-3.752c3.397-1.018,5.718-4.15,5.704-7.696V256h16v10.352c0.001,3.536,2.323,6.653,5.712,7.664
			c3.158,0.934,6.212,2.191,9.112,3.752c3.116,1.693,6.974,1.133,9.48-1.376l7.304-7.304l11.312,11.32l-7.304,7.296
			c-2.509,2.506-3.069,6.364-1.376,9.48c1.561,2.9,2.818,5.954,3.752,9.112c1.011,3.389,4.128,5.711,7.664,5.712H344V328.008z"/>
	</g>
</g>
<g>
	<g>
		<path d="M280,280c-22.091,0-40,17.909-40,40c0.026,22.08,17.92,39.974,40,40c22.091,0,40-17.909,40-40
			C320,297.909,302.091,280,280,280z M280,344c-13.255,0-24-10.745-24-24s10.745-24,24-24s24,10.745,24,24S293.255,344,280,344z"/>
	</g>
</g>
<g>
	<g>
		<path d="M400,120c-22.091,0-40,17.909-40,40s17.909,40,40,40c22.091,0,40-17.909,40-40C439.974,137.92,422.081,120.026,400,120z
			 M400,184c-13.255,0-24-10.745-24-24s10.745-24,24-24s24,10.745,24,24S413.255,184,400,184z"/>
	</g>
</g>
<g>
	<g>
		<path d="M472,136h-12.672l-0.408-0.984l8.96-8.952c3.123-3.124,3.123-8.188,0-11.312L445.256,92.12
			c-3.124-3.123-8.188-3.123-11.312,0l-8.96,8.96L424,100.672V88c0-4.418-3.582-8-8-8h-32c-4.418,0-8,3.582-8,8v12.672l-0.984,0.408
			l-8.96-8.96c-3.174-3.001-8.138-3.001-11.312,0l-22.624,22.632c-3.123,3.124-3.123,8.188,0,11.312l8.96,8.952L340.672,136H328
			c-4.418,0-8,3.582-8,8v32c0,4.418,3.582,8,8,8h12.672l0.408,0.984l-8.96,8.96c-3.123,3.124-3.123,8.188,0,11.312l22.624,22.624
			c3.124,3.123,8.188,3.123,11.312,0l8.96-8.96l0.984,0.408V232c0,4.418,3.582,8,8,8h32c4.418,0,8-3.582,8-8v-12.672l0.984-0.408
			l8.96,8.96c3.124,3.123,8.188,3.123,11.312,0l22.624-22.624c3.123-3.124,3.123-8.188,0-11.312l-8.96-8.96l0.408-0.984H472
			c4.418,0,8-3.582,8-8v-32C480,139.582,476.418,136,472,136z M464,168h-10.352c-3.536,0.001-6.653,2.323-7.664,5.712
			c-0.934,3.158-2.191,6.212-3.752,9.112c-1.693,3.116-1.133,6.974,1.376,9.48l7.304,7.304L439.6,210.912l-7.304-7.304
			c-2.506-2.509-6.364-3.069-9.48-1.376c-2.9,1.561-5.954,2.818-9.112,3.752c-3.389,1.011-5.711,4.128-5.712,7.664V224H392v-10.352
			c-0.001-3.536-2.323-6.653-5.712-7.664c-3.158-0.934-6.212-2.191-9.112-3.752c-3.116-1.693-6.974-1.133-9.48,1.376l-7.304,7.304
			L349.088,199.6l7.304-7.304c2.509-2.506,3.069-6.364,1.376-9.48c-1.561-2.9-2.818-5.954-3.752-9.112
			c-1.014-3.385-4.13-5.704-7.664-5.704H336v-16h10.352c3.536-0.001,6.653-2.323,7.664-5.712c0.934-3.158,2.191-6.212,3.752-9.112
			c1.693-3.116,1.133-6.974-1.376-9.48l-7.304-7.296l11.312-11.32l7.304,7.304c2.506,2.509,6.364,3.069,9.48,1.376
			c2.9-1.561,5.954-2.818,9.112-3.752c3.383-1.013,5.701-4.125,5.704-7.656V96h16v10.352c0.001,3.536,2.323,6.653,5.712,7.664
			c3.158,0.934,6.212,2.191,9.112,3.752c3.116,1.693,6.974,1.133,9.48-1.376l7.304-7.304l11.312,11.32l-7.304,7.296
			c-2.509,2.506-3.069,6.364-1.376,9.48c1.561,2.9,2.818,5.954,3.752,9.112c1.011,3.389,4.128,5.711,7.664,5.712H464V168z"/>
	</g>
</g>
<g>
	<g>
		<path d="M324.872,460.128c-4.768,1.024-9.632,1.848-14.424,2.456l2.016,15.872c5.24-0.672,10.536-1.6,15.736-2.672
			L324.872,460.128z"/>
	</g>
</g>
<g>
	<g>
		<path d="M352.848,451.672c-4.496,1.784-9.136,3.4-13.808,4.816l4.64,15.312c5.096-1.536,10.168-3.312,15.072-5.256
			L352.848,451.672z"/>
	</g>
</g>
<g>
	<g>
		<path d="M463.928,293.152c-0.144,4.864-0.488,9.784-1.024,14.608l15.904,1.784c0.584-5.264,0.96-10.624,1.12-15.92
			L463.928,293.152z"/>
	</g>
</g>
<g>
	<g>
		<path d="M402.696,421.496c-3.68,3.16-7.544,6.208-11.496,9.08l9.408,12.952c4.296-3.128,8.504-6.456,12.512-9.888L402.696,421.496
			z"/>
	</g>
</g>
<g>
	<g>
		<path d="M478.28,261.768l-15.88,2.168c0.664,4.8,1.128,9.704,1.384,14.56l16-0.84C479.496,272.352,478.984,267.008,478.28,261.768
			z"/>
	</g>
</g>
<g>
	<g>
		<path d="M460.672,322.224c-0.944,4.792-2.096,9.576-3.424,14.216l15.376,4.408c1.456-5.072,2.712-10.296,3.752-15.528
			L460.672,322.224z"/>
	</g>
</g>
<g>
	<g>
		<path d="M379.024,438.664c-4.16,2.512-8.48,4.888-12.8,7.056l7.144,14.328c4.744-2.4,9.44-4.952,13.968-7.696L379.024,438.664z"/>
	</g>
</g>
<g>
	<g>
		<path d="M423.2,400.664c-3.072,3.712-6.4,7.336-9.808,10.84l11.408,11.2c3.736-3.8,7.344-7.784,10.72-11.832L423.2,400.664z"/>
	</g>
</g>
<g>
	<g>
		<path d="M452.616,350.336c-1.704,4.568-3.64,9.096-5.728,13.44l14.4,6.92c2.28-4.752,4.4-9.696,6.296-14.704L452.616,350.336z"/>
	</g>
</g>
<g>
	<g>
		<path d="M440,376.736c-2.4,4.224-5.104,8.36-7.872,12.296l13.08,9.216c3.04-4.304,5.944-8.8,8.64-13.456L440,376.736z"/>
	</g>
</g>
<g>
	<g>
		<path d="M242.368,108.648c-2.304,4.752-4.424,9.696-6.32,14.704l14.968,5.656c1.728-4.568,3.664-9.096,5.752-13.44
			L242.368,108.648z"/>
	</g>
</g>
<g>
	<g>
		<path d="M278.848,56.64c-3.736,3.8-7.344,7.784-10.72,11.832l12.296,10.232c3.096-3.736,6.408-7.384,9.832-10.864L278.848,56.64z"
			/>
	</g>
</g>
<g>
	<g>
		<path d="M258.448,81.096c-3.048,4.328-5.952,8.848-8.64,13.456l13.816,8.064c2.464-4.208,5.128-8.352,7.904-12.304L258.448,81.096
			z"/>
	</g>
</g>
<g>
	<g>
		<path d="M231.032,138.504c-1.432,5.064-2.712,10.296-3.752,15.528l15.704,3.096c0.944-4.8,2.096-9.6,3.424-14.216L231.032,138.504
			z"/>
	</g>
</g>
<g>
	<g>
		<path d="M391.2,0.88c-5.24,0.672-10.536,1.6-15.736,2.672l3.32,15.648c4.76-1.008,9.624-1.832,14.416-2.44L391.2,0.88z"/>
	</g>
</g>
<g>
	<g>
		<path d="M224.856,169.8c-0.592,5.264-0.968,10.624-1.12,15.92l16,0.472c0.144-4.864,0.488-9.784,1.024-14.608L224.856,169.8z"/>
	</g>
</g>
<g>
	<g>
		<path d="M360,7.544c-5.096,1.536-10.168,3.312-15.072,5.256l5.904,14.872c4.496-1.792,9.136-3.408,13.808-4.8L360,7.544z"/>
	</g>
</g>
<g>
	<g>
		<path d="M303.048,35.824c-4.296,3.128-8.504,6.456-12.512,9.888l10.4,12.144c3.696-3.16,7.568-6.216,11.52-9.056L303.048,35.824z"
			/>
	</g>
</g>
<g>
	<g>
		<path d="M330.336,19.272c-4.736,2.36-9.448,4.944-13.984,7.696l8.28,13.688c4.168-2.504,8.488-4.88,12.832-7.056L330.336,19.272z"
			/>
	</g>
</g>
<g>
	<g>
		<path d="M239.896,200.848l-15.976,0.84c0.288,5.304,0.8,10.648,1.504,15.888l15.856-2.168
			C240.616,210.608,240.152,205.704,239.896,200.848z"/>
	</g>
</g>
<g>
</g>
<g>
</g>
<g>
</g>
<g>
</g>
<g>
</g>
<g>
</g>
<g>
</g>
<g>
</g>
<g>
</g>
<g>
</g>
<g>
</g>
<g>
</g>
<g>
</g>
<g>
</g>
<g>
</g>
</svg>
