<?xml version="1.0" encoding="iso-8859-1"?>
<!-- Generator: Adobe Illustrator 19.0.0, SVG Export Plug-In . SVG Version: 6.00 Build 0)  -->
<svg version="1.1" id="Capa_1" xmlns="http://www.w3.org/2000/svg" xmlns:xlink="http://www.w3.org/1999/xlink" x="0px" y="0px"
	 viewBox="0 0 480 480" style="enable-background:new 0 0 480 480;" xml:space="preserve">
<g>
	<g>
		<path d="M125.112,383.128c-5.465-3.627-11.698-5.933-18.208-6.736C119.39,366.566,127.07,351.862,128,336
			c0-52.896-30.456-64-56-64s-56,11.104-56,64c0.93,15.862,8.61,30.566,21.096,40.392C15.89,379.005-0.031,397.033,0,418.4V480h16
			v-61.6c0-14.58,11.82-26.4,26.4-26.4h17.76l-11.592,29.024c-1.189,2.973-0.49,6.369,1.776,8.632l16,16
			c3.124,3.123,8.188,3.123,11.312,0l16-16c2.266-2.263,2.965-5.659,1.776-8.632L83.816,392H101.6c14.58,0,26.4,11.82,26.4,26.4V480
			h16v-61.6C144.006,404.222,136.916,390.982,125.112,383.128z M32.416,327.536C34.584,300.728,47.2,288,72,288
			c22.704,0,35.2,10.736,38.776,33.136l-26.656-16c-3.789-2.273-8.703-1.044-10.976,2.745c-0.3,0.5-0.544,1.03-0.728,1.583
			C68.368,321.608,46.52,326.2,32.416,327.536z M72,428.688l-6.616-6.616L72,405.536l6.616,16.536L72,428.688z M72,376
			c-17.843-3.039-32.686-15.412-38.888-32.416c13.696-1.128,38.4-5.28,49.92-20.432l28.6,17.16C108.416,359.896,84.28,376,72,376z"
			/>
	</g>
</g>
<g>
	<g>
		<rect x="32" y="448" width="16" height="32"/>
	</g>
</g>
<g>
	<g>
		<rect x="96" y="448" width="16" height="32"/>
	</g>
</g>
<g>
	<g>
		<path d="M293.112,335.128c-5.465-3.627-11.698-5.933-18.208-6.736C287.39,318.566,295.07,303.862,296,288
			c0-52.896-30.456-64-56-64s-56,11.104-56,64c0.93,15.862,8.61,30.566,21.096,40.392C183.89,331.005,167.969,349.033,168,370.4V432
			h16v-61.6c0-14.58,11.82-26.4,26.4-26.4h17.76l-11.608,29.024c-1.189,2.973-0.49,6.369,1.776,8.632l16,16
			c3.124,3.123,8.188,3.123,11.312,0l16-16c2.266-2.263,2.965-5.659,1.776-8.632L251.816,344H269.6c14.58,0,26.4,11.82,26.4,26.4
			V432h16v-61.6C312.006,356.222,304.916,342.982,293.112,335.128z M200.416,279.536C202.584,252.728,215.2,240,240,240
			c22.704,0,35.2,10.736,38.776,33.136l-26.656-16c-3.789-2.273-8.703-1.044-10.976,2.745c-0.3,0.5-0.544,1.03-0.728,1.583
			C236.368,273.608,214.52,278.2,200.416,279.536z M240,380.688l-6.616-6.616L240,357.536l6.616,16.536L240,380.688z M240,328
			c-17.843-3.039-32.686-15.412-38.888-32.416c13.696-1.128,38.4-5.28,49.92-20.432l28.6,17.16C276.416,311.896,252.28,328,240,328z
			"/>
	</g>
</g>
<g>
	<g>
		<rect x="200" y="400" width="16" height="32"/>
	</g>
</g>
<g>
	<g>
		<rect x="264" y="400" width="16" height="32"/>
	</g>
</g>
<g>
	<g>
		<path d="M461.112,383.128c-5.465-3.627-11.698-5.933-18.208-6.736C455.39,366.566,463.07,351.862,464,336
			c0-52.896-30.456-64-56-64s-56,11.104-56,64c0.93,15.862,8.61,30.566,21.096,40.392C351.89,379.005,335.969,397.033,336,418.4V480
			h16v-61.6c0-14.58,11.82-26.4,26.4-26.4h17.76l-11.608,29.024c-1.189,2.973-0.49,6.369,1.776,8.632l16,16
			c3.124,3.123,8.188,3.123,11.312,0l16-16c2.266-2.263,2.965-5.659,1.776-8.632L419.816,392H437.6c14.58,0,26.4,11.82,26.4,26.4
			V480h16v-61.6C480.006,404.222,472.916,390.982,461.112,383.128z M368.416,327.536C370.584,300.728,383.2,288,408,288
			c22.704,0,35.2,10.736,38.776,33.136l-26.656-16c-3.789-2.273-8.703-1.044-10.976,2.745c-0.3,0.5-0.544,1.03-0.728,1.583
			C404.368,321.608,382.52,326.2,368.416,327.536z M408,428.688l-6.616-6.616L408,405.536l6.616,16.536L408,428.688z M408,376
			c-17.843-3.039-32.686-15.412-38.888-32.416c13.696-1.128,38.4-5.28,49.92-20.432l28.6,17.16C444.416,359.896,420.28,376,408,376z
			"/>
	</g>
</g>
<g>
	<g>
		<rect x="368" y="448" width="16" height="32"/>
	</g>
</g>
<g>
	<g>
		<rect x="432" y="448" width="16" height="32"/>
	</g>
</g>
<g>
	<g>
		<path d="M320,72c0.058-13.197-10.593-23.943-23.79-24.002c-5.995-0.027-11.781,2.201-16.21,6.242c-9.043-8.324-22.957-8.324-32,0
			c-6.442-6.023-15.737-7.882-24-4.8V24c0-13.255-10.745-24-24-24s-24,10.745-24,24v65.136
			c-17.04,4.342-27.334,21.676-22.992,38.716c3.371,13.228,14.798,22.835,28.408,23.884C193.96,176.902,219.888,192.58,248,192
			c39.696,0,72-28.712,72-64c-0.065-4.868-0.753-9.707-2.048-14.4c1.342-3.023,2.04-6.292,2.048-9.6V72z M256,72
			c0-4.418,3.582-8,8-8s8,3.582,8,8v32c0,4.418-3.582,8-8,8c-0.018-6.789-2.928-13.248-8-17.76V72z M224,72c0-4.418,3.582-8,8-8
			s8,3.582,8,8v16h-16V72z M192,24c0-4.418,3.582-8,8-8s8,3.582,8,8v64h-16V24z M178.599,134.993
			c-8.302-2.96-12.633-12.091-9.673-20.393c2.271-6.37,8.311-10.617,15.074-10.6h56c0.874,0.029,1.736,0.205,2.552,0.52
			c0.37,0.13,0.731,0.285,1.08,0.464c3.915,1.961,5.499,6.724,3.538,10.639c-1.357,2.709-4.14,4.408-7.17,4.377h-33.472
			c-3.384,0.001-6.402,2.131-7.536,5.32C196.032,133.623,186.901,137.953,178.599,134.993z M248,176
			c-20.425,0.512-39.596-9.819-50.4-27.16c5.858-2.768,10.741-7.245,14.008-12.84H240c6.789-0.018,13.248-2.928,17.76-8H264
			c5.924-0.018,11.628-2.243,16-6.24c6.412,5.986,15.653,7.843,23.88,4.8c0,0.48,0.12,0.96,0.12,1.44
			C304,154.472,278.88,176,248,176z M304,104c0,4.418-3.582,8-8,8s-8-3.582-8-8V72c0-4.418,3.582-8,8-8s8,3.582,8,8V104z"/>
	</g>
</g>
<g>
	<g>
		<path d="M136.616,219.736l-15.896,1.8c0.583,5.155,1.497,10.267,2.736,15.304l15.56-3.84
			C137.932,228.635,137.13,224.204,136.616,219.736z"/>
	</g>
</g>
<g>
	<g>
		<path d="M156.056,269.416l-12.904,9.448c3.068,4.187,6.403,8.171,9.984,11.928l11.576-11.04
			C161.609,276.495,158.718,273.042,156.056,269.416z"/>
	</g>
</g>
<g>
	<g>
		<path d="M129.712,160.616c-2.047,4.771-3.784,9.669-5.2,14.664l15.4,4.352c1.224-4.328,2.728-8.572,4.504-12.704L129.712,160.616z
			"/>
	</g>
</g>
<g>
	<g>
		<path d="M143.096,245.848l-14.904,5.816c1.889,4.841,4.094,9.552,6.6,14.104l14.008-7.728
			C146.636,254.104,144.73,250.032,143.096,245.848z"/>
	</g>
</g>
<g>
	<g>
		<path d="M121.264,190.504c-0.749,5.133-1.172,10.309-1.264,15.496l16,0.264c0.073-4.501,0.437-8.993,1.088-13.448L121.264,190.504
			z"/>
	</g>
</g>
<g>
	<g>
		<path d="M358.712,190.336l-15.832,2.336c0.661,4.454,1.036,8.946,1.12,13.448l16-0.28
			C359.903,200.65,359.473,195.471,358.712,190.336z"/>
	</g>
</g>
<g>
	<g>
		<path d="M343.36,219.6c-0.491,4.468-1.277,8.899-2.352,13.264l15.536,3.832c1.239-5.047,2.148-10.17,2.72-15.336L343.36,219.6z"/>
	</g>
</g>
<g>
	<g>
		<path d="M324,269.32c-2.66,3.631-5.548,7.088-8.648,10.352l11.592,11.024c3.574-3.762,6.904-7.748,9.968-11.936L324,269.32z"/>
	</g>
</g>
<g>
	<g>
		<path d="M350.216,160.456l-14.688,6.352c1.781,4.124,3.291,8.359,4.52,12.68l15.392-4.368
			C354.02,170.124,352.274,165.225,350.216,160.456z"/>
	</g>
</g>
<g>
	<g>
		<path d="M336.944,245.736c-1.631,4.189-3.534,8.267-5.696,12.208l14.024,7.704c2.501-4.555,4.701-9.269,6.584-14.112
			L336.944,245.736z"/>
	</g>
</g>
<g>
	<g>
		<rect x="344" y="0" width="16" height="16"/>
	</g>
</g>
<g>
	<g>
		<rect x="328" y="16" width="16" height="16"/>
	</g>
</g>
<g>
	<g>
		<rect x="344" y="32" width="16" height="16"/>
	</g>
</g>
<g>
	<g>
		<rect x="360" y="16" width="16" height="16"/>
	</g>
</g>
<g>
	<g>
		<rect x="392" y="0" width="16" height="16"/>
	</g>
</g>
<g>
	<g>
		<rect x="112" y="48" width="16" height="16"/>
	</g>
</g>
<g>
	<g>
		<rect x="96" y="64" width="16" height="16"/>
	</g>
</g>
<g>
	<g>
		<rect x="112" y="80" width="16" height="16"/>
	</g>
</g>
<g>
	<g>
		<rect x="128" y="64" width="16" height="16"/>
	</g>
</g>
<g>
	<g>
		<rect x="72" y="24" width="16" height="16"/>
	</g>
</g>
<g>
</g>
<g>
</g>
<g>
</g>
<g>
</g>
<g>
</g>
<g>
</g>
<g>
</g>
<g>
</g>
<g>
</g>
<g>
</g>
<g>
</g>
<g>
</g>
<g>
</g>
<g>
</g>
<g>
</g>
</svg>
