<?xml version="1.0" encoding="iso-8859-1"?>
<!-- Generator: Adobe Illustrator 19.0.0, SVG Export Plug-In . SVG Version: 6.00 Build 0)  -->
<svg version="1.1" id="Capa_1" xmlns="http://www.w3.org/2000/svg" xmlns:xlink="http://www.w3.org/1999/xlink" x="0px" y="0px"
	 viewBox="0 0 480 480" style="enable-background:new 0 0 480 480;" xml:space="preserve">
<g>
	<g>
		<path d="M463.315,0h-416c-4.418,0-8,3.582-8,8v268.688l-21.656,21.656c-11.96,11.952-11.967,31.337-0.014,43.298
			c5.746,5.75,13.542,8.978,21.67,8.974V472c0,4.418,3.582,8,8,8h416c4.418,0,8-3.582,8-8V8C471.315,3.582,467.733,0,463.315,0z
			 M44.491,333.64c-5.372,2.047-11.444,0.758-15.52-3.296c-5.702-5.717-5.702-14.971,0-20.688l24-24l34.344-34.344l2.344,2.344
			l16,16l2.344,2.344l-58.344,58.344C48.192,331.799,46.429,332.923,44.491,333.64z M114.195,240.432
			c1.493,1.632,3.056,3.195,4.688,4.688l-7.568,7.568L106.627,248L114.195,240.432z M111.315,192c0-30.928,25.072-56,56-56
			c30.913,0.035,55.965,25.087,56,56c0,30.928-25.072,56-56,56C136.387,248,111.315,222.928,111.315,192z M359.315,464h-304V346.096
			c0.096-0.056,0.168-0.144,0.264-0.208c1.951-1.203,3.76-2.623,5.392-4.232l64-64c3.123-3.124,3.123-8.188,0-11.312L122.627,264
			l9.344-9.344c34.553,19.573,78.431,7.429,98.004-27.123c6.138-10.836,9.357-23.079,9.34-35.533c-0.009-2.673-0.167-5.344-0.472-8
			h96.472c4.418,0,8-3.582,8-8V40c0-4.418-3.582-8-8-8h-112c-4.418,0-8,3.582-8,8v98.488c-29.5-26.571-74.955-24.196-101.527,5.304
			c-20.703,22.986-24.38,56.638-9.129,83.552l-9.344,9.344l-2.344-2.344c-3.124-3.123-8.188-3.123-11.312,0l-26.344,26.344V16h304
			V464z M279.315,128c17.673,0,32,14.327,32,32v8h-64v-8C247.315,142.327,261.642,128,279.315,128z M263.315,96
			c0-8.837,7.163-16,16-16s16,7.163,16,16s-7.163,16-16,16S263.315,104.837,263.315,96z M302.459,117.976
			c12.202-12.784,11.731-33.04-1.053-45.243c-12.784-12.202-33.04-11.731-45.243,1.053c-11.803,12.365-11.803,31.824,0,44.189
			c-15.087,8.304-24.569,24.053-24.848,41.272v-0.08V48h96v112C327.305,142.51,317.782,126.409,302.459,117.976z M407.315,464h-32
			V16h32V464z M455.315,464h-32V16h32V464z"/>
	</g>
</g>
<g>
	<g>
		<path d="M119.315,192h16c0-17.673,14.327-32,32-32v-16C140.818,144.031,119.346,165.503,119.315,192z"/>
	</g>
</g>
<g>
	<g>
		<rect x="71.315" y="40" width="120" height="16"/>
	</g>
</g>
<g>
	<g>
		<rect x="71.315" y="72" width="72" height="16"/>
	</g>
</g>
<g>
	<g>
		<rect x="159.315" y="72" width="32" height="16"/>
	</g>
</g>
<g>
	<g>
		<rect x="143.315" y="280" width="200" height="16"/>
	</g>
</g>
<g>
	<g>
		<rect x="103.315" y="312" width="72" height="16"/>
	</g>
</g>
<g>
	<g>
		<rect x="191.315" y="312" width="152" height="16"/>
	</g>
</g>
<g>
	<g>
		<rect x="71.315" y="344" width="272" height="16"/>
	</g>
</g>
<g>
	<g>
		<rect x="71.315" y="376" width="72" height="16"/>
	</g>
</g>
<g>
	<g>
		<rect x="159.315" y="376" width="184" height="16"/>
	</g>
</g>
<g>
</g>
<g>
</g>
<g>
</g>
<g>
</g>
<g>
</g>
<g>
</g>
<g>
</g>
<g>
</g>
<g>
</g>
<g>
</g>
<g>
</g>
<g>
</g>
<g>
</g>
<g>
</g>
<g>
</g>
</svg>
