<?xml version="1.0" encoding="iso-8859-1"?>
<!-- Generator: Adobe Illustrator 19.0.0, SVG Export Plug-In . SVG Version: 6.00 Build 0)  -->
<svg version="1.1" id="Capa_1" xmlns="http://www.w3.org/2000/svg" xmlns:xlink="http://www.w3.org/1999/xlink" x="0px" y="0px"
	 viewBox="0 0 480.002 480.002" style="enable-background:new 0 0 480.002 480.002;" xml:space="preserve">
<g>
	<g>
		<path d="M306.81,260.606l-64-24c-1.81-0.679-3.806-0.679-5.616,0l-64,24c-3.125,1.171-5.194,4.159-5.192,7.496
			c0.078,32.716,15.473,63.508,41.6,83.2l25.6,19.2c2.844,2.133,6.756,2.133,9.6,0l25.6-19.2c26.127-19.692,41.522-50.484,41.6-83.2
			C312.004,264.765,309.935,261.777,306.81,260.606z M260.802,338.502l-20.8,15.6l-20.8-15.6
			c-20.569-15.51-33.357-39.213-35.024-64.92l55.824-20.936l55.832,20.936C294.165,299.29,281.374,322.994,260.802,338.502z"/>
	</g>
</g>
<g>
	<g>
		<path d="M423.938,183.59c0.444-13.193-1.658-26.347-6.192-38.744c-19.294-53.917-78.644-81.984-132.561-62.689
			c-3.373,1.207-6.681,2.588-9.911,4.137c-13.927-42.45-55.254-69.719-99.76-65.824c-35.511,3.685-66.184,26.448-80,59.368
			c-7.277,16.792-9.318,35.389-5.856,53.36c-51.663,7.193-90.006,51.544-89.656,103.704c0.965,39.907,33.819,71.632,73.736,71.2h72
			c11.04,31.209,31.026,58.477,57.464,78.4l32,24c2.844,2.133,6.756,2.133,9.6,0l32-24c26.441-19.922,46.43-47.19,57.472-78.4
			h81.728c35.33-0.04,63.96-28.67,64-64C480.002,204.55,451.354,190.558,423.938,183.59z M267.202,373.702l-27.2,20.4l-27.2-20.4
			c-36.697-27.668-58.991-70.385-60.704-116.312l87.904-36.624l87.904,36.624C326.193,303.317,303.899,346.033,267.202,373.702z
			 M416.002,292.102h-76.92c3.252-13.085,4.904-26.517,4.92-40c0-3.229-1.94-6.141-4.92-7.384l-96-40
			c-1.971-0.822-4.189-0.822-6.16,0l-96,40c-2.98,1.243-4.92,4.155-4.92,7.384c0.016,13.483,1.668,26.915,4.92,40h-67.2
			c-31.361,0.37-57.142-24.642-57.72-56c-0.049-47.026,36.971-85.735,83.952-87.784c4.414-0.201,7.828-3.943,7.627-8.356
			c-0.029-0.63-0.132-1.254-0.307-1.86c-5.254-17.133-4.195-35.581,2.984-52c11.47-27.491,37.019-46.54,66.64-49.688
			c40.416-3.538,77.104,23.679,85.44,63.384c0.896,4.327,5.129,7.108,9.456,6.212c0.9-0.186,1.76-0.526,2.544-1.004
			c17.896-11.002,39.16-15.18,59.888-11.768c31.4,5.397,57.521,27.162,68.496,57.072c4.524,12.371,6.179,25.608,4.84,38.712
			c-0.407,4.039,2.275,7.743,6.24,8.616c36.12,7.944,50.2,20.968,50.2,46.464C463.972,270.599,442.499,292.071,416.002,292.102z"/>
	</g>
</g>
<g>
	<g>
		<path d="M217.594,442.342l-2.456,15.84c5.513,0.856,11.068,1.424,16.64,1.704l0.8-16
			C227.56,443.63,222.559,443.115,217.594,442.342z"/>
	</g>
</g>
<g>
	<g>
		<path d="M161.714,420.99l-8.704,13.424c4.687,3.035,9.529,5.825,14.504,8.36l7.256-14.256
			C170.291,426.236,165.933,423.723,161.714,420.99z"/>
	</g>
</g>
<g>
	<g>
		<path d="M138.322,402.03l-11.304,11.368c3.952,3.947,8.107,7.685,12.448,11.2l10.056-12.496
			C145.618,408.939,141.88,405.578,138.322,402.03z"/>
	</g>
</g>
<g>
	<g>
		<path d="M188.538,434.63l-5.728,14.952c5.22,1.997,10.542,3.716,15.944,5.152l4.112-15.464
			C198.012,437.975,193.23,436.426,188.538,434.63z"/>
	</g>
</g>
<g>
	<g>
		<path d="M119.33,378.718l-13.4,8.744c3.053,4.671,6.345,9.181,9.864,13.512l12.416-10.096
			C125.043,386.98,122.079,382.921,119.33,378.718z"/>
	</g>
</g>
<g>
	<g>
		<path d="M97.802,322.934l-15.808,2.512c0.881,5.513,2.048,10.976,3.496,16.368l15.456-4.16
			C99.64,332.806,98.59,327.892,97.802,322.934z"/>
	</g>
</g>
<g>
	<g>
		<path d="M105.602,351.958l-14.92,5.768c2.011,5.207,4.294,10.305,6.84,15.272l14.232-7.304
			C109.466,361.225,107.413,356.64,105.602,351.958z"/>
	</g>
</g>
<g>
	<g>
		<path d="M262.618,442.358c-4.954,0.773-9.945,1.289-14.952,1.544l0.8,16c5.576-0.289,11.133-0.869,16.648-1.736L262.618,442.358z"
			/>
	</g>
</g>
<g>
	<g>
		<path d="M382.242,322.686c-0.781,4.961-1.822,9.877-3.12,14.728l15.456,4.152c1.444-5.397,2.603-10.865,3.472-16.384
			L382.242,322.686z"/>
	</g>
</g>
<g>
	<g>
		<path d="M360.802,378.502c-2.745,4.227-5.709,8.307-8.88,12.224l12.432,10.08c3.512-4.327,6.797-8.835,9.84-13.504
			L360.802,378.502z"/>
	</g>
</g>
<g>
	<g>
		<path d="M374.474,351.742c-1.802,4.689-3.85,9.279-6.136,13.752l14.24,7.288c2.547-4.977,4.827-10.085,6.832-15.304
			L374.474,351.742z"/>
	</g>
</g>
<g>
	<g>
		<path d="M318.466,420.902c-4.21,2.73-8.56,5.237-13.032,7.512l7.272,14.248c4.974-2.538,9.813-5.334,14.496-8.376L318.466,420.902
			z"/>
	</g>
</g>
<g>
	<g>
		<path d="M341.834,401.934c-3.552,3.548-7.288,6.908-11.192,10.064l10.072,12.44c4.339-3.514,8.491-7.253,12.44-11.2
			L341.834,401.934z"/>
	</g>
</g>
<g>
	<g>
		<path d="M291.69,434.558c-4.687,1.797-9.464,3.349-14.312,4.648l4.136,15.456c5.397-1.442,10.714-3.17,15.928-5.176
			L291.69,434.558z"/>
	</g>
</g>
<g>
	<g>
		<path d="M96.002,260.102c-22.08-0.026-39.974-17.92-40-40h-16c0.035,30.913,25.087,55.965,56,56h24v-16H96.002z"/>
	</g>
</g>
<g>
	<g>
		<path d="M328.002,108.102v16c17.673,0,32,14.327,32,32h16C375.972,129.605,354.499,108.133,328.002,108.102z"/>
	</g>
</g>
<g>
</g>
<g>
</g>
<g>
</g>
<g>
</g>
<g>
</g>
<g>
</g>
<g>
</g>
<g>
</g>
<g>
</g>
<g>
</g>
<g>
</g>
<g>
</g>
<g>
</g>
<g>
</g>
<g>
</g>
</svg>
