<?xml version="1.0" encoding="iso-8859-1"?>
<!-- Generator: Adobe Illustrator 19.0.0, SVG Export Plug-In . SVG Version: 6.00 Build 0)  -->
<svg version="1.1" id="Capa_1" xmlns="http://www.w3.org/2000/svg" xmlns:xlink="http://www.w3.org/1999/xlink" x="0px" y="0px"
	 viewBox="0 0 480 480" style="enable-background:new 0 0 480 480;" xml:space="preserve">
<g>
	<g>
		<path d="M472,144h-48v-24c0-4.418-3.582-8-8-8h-16c0-26.51-21.49-48-48-48c-26.51,0-48,21.49-48,48h-16c-4.418,0-8,3.582-8,8v24
			h-40V8c0-4.418-3.582-8-8-8H8C3.582,0,0,3.582,0,8v464c0,4.418,3.582,8,8,8h464c4.418,0,8-3.582,8-8V152
			C480,147.582,476.418,144,472,144z M224,464H16V16h208V464z M296,128h16c4.418,0,8-3.582,8-8v-8c0-17.673,14.327-32,32-32
			c17.673,0,32,14.327,32,32v8c0,4.418,3.582,8,8,8h16v16H296V128z M344,464h-48v-96h48V464z M408,464h-48v-96h48V464z M280,352v-16
			h144v16h-8H280z M464,464h-40v-96h8c4.418,0,8-3.582,8-8v-32c0-4.418-3.582-8-8-8H272c-4.418,0-8,3.582-8,8v32
			c0,4.418,3.582,8,8,8h8v96h-40V160h224V464z"/>
	</g>
</g>
<g>
	<g>
		<path d="M304,176h-32c-4.418,0-8,3.582-8,8v32c0,4.418,3.582,8,8,8h32c4.418,0,8-3.582,8-8v-32C312,179.582,308.418,176,304,176z
			 M296,208h-16v-16h16V208z"/>
	</g>
</g>
<g>
	<g>
		<path d="M368,176h-32c-4.418,0-8,3.582-8,8v32c0,4.418,3.582,8,8,8h32c4.418,0,8-3.582,8-8v-32C376,179.582,372.418,176,368,176z
			 M360,208h-16v-16h16V208z"/>
	</g>
</g>
<g>
	<g>
		<path d="M432,176h-32c-4.418,0-8,3.582-8,8v32c0,4.418,3.582,8,8,8h32c4.418,0,8-3.582,8-8v-32C440,179.582,436.418,176,432,176z
			 M424,208h-16v-16h16V208z"/>
	</g>
</g>
<g>
	<g>
		<path d="M304,240h-32c-4.418,0-8,3.582-8,8v32c0,4.418,3.582,8,8,8h32c4.418,0,8-3.582,8-8v-32C312,243.582,308.418,240,304,240z
			 M296,272h-16v-16h16V272z"/>
	</g>
</g>
<g>
	<g>
		<path d="M368,240h-32c-4.418,0-8,3.582-8,8v32c0,4.418,3.582,8,8,8h32c4.418,0,8-3.582,8-8v-32C376,243.582,372.418,240,368,240z
			 M360,272h-16v-16h16V272z"/>
	</g>
</g>
<g>
	<g>
		<path d="M432,240h-32c-4.418,0-8,3.582-8,8v32c0,4.418,3.582,8,8,8h32c4.418,0,8-3.582,8-8v-32C440,243.582,436.418,240,432,240z
			 M424,272h-16v-16h16V272z"/>
	</g>
</g>
<g>
	<g>
		<path d="M72,32H40c-4.418,0-8,3.582-8,8v32c0,4.418,3.582,8,8,8h32c4.418,0,8-3.582,8-8V40C80,35.582,76.418,32,72,32z M64,64H48
			V48h16V64z"/>
	</g>
</g>
<g>
	<g>
		<path d="M136,32h-32c-4.418,0-8,3.582-8,8v32c0,4.418,3.582,8,8,8h32c4.418,0,8-3.582,8-8V40C144,35.582,140.418,32,136,32z
			 M128,64h-16V48h16V64z"/>
	</g>
</g>
<g>
	<g>
		<path d="M200,32h-32c-4.418,0-8,3.582-8,8v32c0,4.418,3.582,8,8,8h32c4.418,0,8-3.582,8-8V40C208,35.582,204.418,32,200,32z
			 M192,64h-16V48h16V64z"/>
	</g>
</g>
<g>
	<g>
		<path d="M72,96H40c-4.418,0-8,3.582-8,8v32c0,4.418,3.582,8,8,8h32c4.418,0,8-3.582,8-8v-32C80,99.582,76.418,96,72,96z M64,128
			H48v-16h16V128z"/>
	</g>
</g>
<g>
	<g>
		<path d="M136,96h-32c-4.418,0-8,3.582-8,8v32c0,4.418,3.582,8,8,8h32c4.418,0,8-3.582,8-8v-32C144,99.582,140.418,96,136,96z
			 M128,128h-16v-16h16V128z"/>
	</g>
</g>
<g>
	<g>
		<path d="M200,96h-32c-4.418,0-8,3.582-8,8v32c0,4.418,3.582,8,8,8h32c4.418,0,8-3.582,8-8v-32C208,99.582,204.418,96,200,96z
			 M192,128h-16v-16h16V128z"/>
	</g>
</g>
<g>
	<g>
		<path d="M72,160H40c-4.418,0-8,3.582-8,8v32c0,4.418,3.582,8,8,8h32c4.418,0,8-3.582,8-8v-32C80,163.582,76.418,160,72,160z
			 M64,192H48v-16h16V192z"/>
	</g>
</g>
<g>
	<g>
		<path d="M136,160h-32c-4.418,0-8,3.582-8,8v32c0,4.418,3.582,8,8,8h32c4.418,0,8-3.582,8-8v-32C144,163.582,140.418,160,136,160z
			 M128,192h-16v-16h16V192z"/>
	</g>
</g>
<g>
	<g>
		<path d="M200,160h-32c-4.418,0-8,3.582-8,8v32c0,4.418,3.582,8,8,8h32c4.418,0,8-3.582,8-8v-32C208,163.582,204.418,160,200,160z
			 M192,192h-16v-16h16V192z"/>
	</g>
</g>
<g>
	<g>
		<path d="M72,224H40c-4.418,0-8,3.582-8,8v32c0,4.418,3.582,8,8,8h32c4.418,0,8-3.582,8-8v-32C80,227.582,76.418,224,72,224z
			 M64,256H48v-16h16V256z"/>
	</g>
</g>
<g>
	<g>
		<path d="M136,224h-32c-4.418,0-8,3.582-8,8v32c0,4.418,3.582,8,8,8h32c4.418,0,8-3.582,8-8v-32C144,227.582,140.418,224,136,224z
			 M128,256h-16v-16h16V256z"/>
	</g>
</g>
<g>
	<g>
		<path d="M200,224h-32c-4.418,0-8,3.582-8,8v32c0,4.418,3.582,8,8,8h32c4.418,0,8-3.582,8-8v-32C208,227.582,204.418,224,200,224z
			 M192,256h-16v-16h16V256z"/>
	</g>
</g>
<g>
	<g>
		<path d="M72,288H40c-4.418,0-8,3.582-8,8v32c0,4.418,3.582,8,8,8h32c4.418,0,8-3.582,8-8v-32C80,291.582,76.418,288,72,288z
			 M64,320H48v-16h16V320z"/>
	</g>
</g>
<g>
	<g>
		<path d="M136,288h-32c-4.418,0-8,3.582-8,8v32c0,4.418,3.582,8,8,8h32c4.418,0,8-3.582,8-8v-32C144,291.582,140.418,288,136,288z
			 M128,320h-16v-16h16V320z"/>
	</g>
</g>
<g>
	<g>
		<path d="M200,288h-32c-4.418,0-8,3.582-8,8v32c0,4.418,3.582,8,8,8h32c4.418,0,8-3.582,8-8v-32C208,291.582,204.418,288,200,288z
			 M192,320h-16v-16h16V320z"/>
	</g>
</g>
<g>
	<g>
		<path d="M72,352H40c-4.418,0-8,3.582-8,8v32c0,4.418,3.582,8,8,8h32c4.418,0,8-3.582,8-8v-32C80,355.582,76.418,352,72,352z
			 M64,384H48v-16h16V384z"/>
	</g>
</g>
<g>
	<g>
		<path d="M136,352h-32c-4.418,0-8,3.582-8,8v32c0,4.418,3.582,8,8,8h32c4.418,0,8-3.582,8-8v-32C144,355.582,140.418,352,136,352z
			 M128,384h-16v-16h16V384z"/>
	</g>
</g>
<g>
	<g>
		<path d="M200,352h-32c-4.418,0-8,3.582-8,8v32c0,4.418,3.582,8,8,8h32c4.418,0,8-3.582,8-8v-32C208,355.582,204.418,352,200,352z
			 M192,384h-16v-16h16V384z"/>
	</g>
</g>
<g>
	<g>
		<rect x="328" y="112" width="16" height="16"/>
	</g>
</g>
<g>
	<g>
		<rect x="360" y="112" width="16" height="16"/>
	</g>
</g>
<g>
</g>
<g>
</g>
<g>
</g>
<g>
</g>
<g>
</g>
<g>
</g>
<g>
</g>
<g>
</g>
<g>
</g>
<g>
</g>
<g>
</g>
<g>
</g>
<g>
</g>
<g>
</g>
<g>
</g>
</svg>
