<?xml version="1.0" encoding="iso-8859-1"?>
<!-- Generator: Adobe Illustrator 19.0.0, SVG Export Plug-In . SVG Version: 6.00 Build 0)  -->
<svg version="1.1" id="Capa_1" xmlns="http://www.w3.org/2000/svg" xmlns:xlink="http://www.w3.org/1999/xlink" x="0px" y="0px"
	 viewBox="0 0 480 480" style="enable-background:new 0 0 480 480;" xml:space="preserve">
<g>
	<g>
		<path d="M456,80H24C10.745,80,0,90.745,0,104v272c0,13.255,10.745,24,24,24h432c13.255,0,24-10.745,24-24V104
			C480,90.745,469.255,80,456,80z M464,376c0,4.418-3.582,8-8,8H24c-4.418,0-8-3.582-8-8V104c0-4.418,3.582-8,8-8h432
			c4.418,0,8,3.582,8,8V376z"/>
	</g>
</g>
<g>
	<g>
		<path d="M152,112H40c-4.418,0-8,3.582-8,8v136c0,4.418,3.582,8,8,8h112c4.418,0,8-3.582,8-8V120C160,115.582,156.418,112,152,112z
			 M128,248H64v-8c0-17.673,14.327-32,32-32s32,14.327,32,32V248z M80,176c0-8.837,7.163-16,16-16s16,7.163,16,16s-7.163,16-16,16
			S80,184.837,80,176z M144,240c-0.01-17.49-9.533-33.591-24.856-42.024c12.203-12.784,11.731-33.04-1.053-45.243
			c-12.784-12.202-33.04-11.731-45.243,1.053c-11.803,12.365-11.803,31.824,0,44.189C57.528,206.411,48.009,222.511,48,240V128h96
			V240z"/>
	</g>
</g>
<g>
	<g>
		<rect x="184" y="128" width="184" height="16"/>
	</g>
</g>
<g>
	<g>
		<rect x="184" y="208" width="88" height="16"/>
	</g>
</g>
<g>
	<g>
		<rect x="288" y="208" width="80" height="16"/>
	</g>
</g>
<g>
	<g>
		<rect x="184" y="232" width="136" height="16"/>
	</g>
</g>
<g>
	<g>
		<path d="M432,104h-48c-4.418,0-8,3.582-8,8v64c0,4.418,3.582,8,8,8h48c4.418,0,8-3.582,8-8v-64C440,107.582,436.418,104,432,104z
			 M424,168h-32v-48h32V168z"/>
	</g>
</g>
<g>
	<g>
		<rect x="184" y="152" width="88" height="16"/>
	</g>
</g>
<g>
	<g>
		<path d="M440,304H232c-4.418,0-8,3.582-8,8v48c0,4.418,3.582,8,8,8h208c4.418,0,8-3.582,8-8v-48C448,307.582,444.418,304,440,304z
			 M432,352H240v-32h192V352z"/>
	</g>
</g>
<g>
	<g>
		<rect x="32" y="312" width="16" height="48"/>
	</g>
</g>
<g>
	<g>
		<polygon points="72,312 56,312 56,360 72,360 88,360 88,312 		"/>
	</g>
</g>
<g>
	<g>
		<rect x="96" y="312" width="16" height="48"/>
	</g>
</g>
<g>
	<g>
		<polygon points="136,312 120,312 120,360 136,360 152,360 152,312 		"/>
	</g>
</g>
<g>
	<g>
		<rect x="160" y="312" width="16" height="48"/>
	</g>
</g>
<g>
</g>
<g>
</g>
<g>
</g>
<g>
</g>
<g>
</g>
<g>
</g>
<g>
</g>
<g>
</g>
<g>
</g>
<g>
</g>
<g>
</g>
<g>
</g>
<g>
</g>
<g>
</g>
<g>
</g>
</svg>
